<?xml version="1.0" encoding="iso-8859-1"?>
<!-- Generator: Adobe Illustrator 22.0.1, SVG Export Plug-In . SVG Version: 6.00 Build 0)  -->
<svg version="1.1" xmlns="http://www.w3.org/2000/svg" xmlns:xlink="http://www.w3.org/1999/xlink" x="0px" y="0px"
	 viewBox="0 0 128 128" style="enable-background:new 0 0 128 128;" xml:space="preserve">
<g id="_x32_5">
	<path style="fill:#DDD9E2;" d="M93.661,126.099H42.372c-4.095,0-7.415,0-7.415,0V1.902c0,0,3.32,0,7.415,0h51.289
		c4.095,0,7.415,3.336,7.415,7.452v109.293C101.076,122.763,97.757,126.099,93.661,126.099z"/>
	<path style="fill:#CECBD1;" d="M98.076,127.962H88.1V1.902h9.977c1.657,0,3,1.343,3,3v120.06
		C101.076,126.619,99.733,127.962,98.076,127.962z"/>
	<path style="fill:#2E435B;" d="M95.372,128H32.628c-4.194,0-7.605-3.411-7.605-7.605V7.605C25.022,3.411,28.434,0,32.628,0h62.745
		c4.194,0,7.605,3.411,7.605,7.605v112.789C102.978,124.589,99.567,128,95.372,128z M32.628,3.803c-2.097,0-3.803,1.706-3.803,3.803
		v112.789c0,2.096,1.705,3.803,3.803,3.803h62.745c2.096,0,3.803-1.706,3.803-3.803V7.605c0-2.096-1.706-3.803-3.803-3.803H32.628z
		 M93.044,62.099H34.957v3.803h58.087V62.099z M86.457,72.736c2.989,2.139,3.678,6.296,1.539,9.284s-6.296,3.678-9.284,1.539
		s-3.678-6.296-1.539-9.284S83.468,70.597,86.457,72.736z M49.289,83.56c2.989-2.139,3.678-6.296,1.539-9.284
		c-2.139-2.989-6.296-3.678-9.284-1.539c-2.989,2.139-3.678,6.296-1.539,9.284S46.3,85.699,49.289,83.56z M86.457,89.848
		c2.989,2.139,3.678,6.296,1.539,9.284s-6.296,3.678-9.284,1.539s-3.678-6.296-1.539-9.284S83.468,87.71,86.457,89.848z
		 M49.289,100.672c2.989-2.139,3.678-6.296,1.539-9.284c-2.139-2.989-6.296-3.678-9.284-1.539c-2.989,2.139-3.678,6.296-1.539,9.284
		S46.3,102.811,49.289,100.672z M86.457,106.961c2.989,2.139,3.678,6.296,1.539,9.284s-6.296,3.678-9.284,1.539
		c-2.989-2.139-3.678-6.296-1.539-9.284C79.311,105.511,83.468,104.822,86.457,106.961z M49.289,117.784
		c2.989-2.139,3.678-6.296,1.539-9.284c-2.139-2.989-6.296-3.678-9.284-1.539c-2.989,2.139-3.678,6.296-1.539,9.284
		S46.3,119.923,49.289,117.784z M39.694,14.822c2.21-2.936,6.383-3.525,9.319-1.315c2.936,2.21,3.525,6.383,1.315,9.319
		c-2.21,2.936-6.383,3.525-9.319,1.315S37.484,17.759,39.694,14.822z M78.987,52.728c2.936,2.21,7.109,1.622,9.319-1.315
		c2.21-2.936,1.622-7.109-1.315-9.319s-7.109-1.622-9.319,1.315C75.462,46.345,76.05,50.518,78.987,52.728z M86.991,24.141
		c-2.936,2.21-7.109,1.622-9.319-1.315c-2.21-2.936-1.622-7.109,1.315-9.319s7.109-1.622,9.319,1.315
		C90.516,17.759,89.927,21.931,86.991,24.141z M50.328,43.409c-2.21-2.936-6.383-3.525-9.319-1.315s-3.525,6.383-1.315,9.319
		c2.21,2.936,6.383,3.525,9.319,1.315C51.95,50.518,52.538,46.345,50.328,43.409z"/>
</g>
<g id="Layer_1">
</g>
</svg>
