<?xml version="1.0" encoding="iso-8859-1"?>
<!-- Generator: Adobe Illustrator 22.0.1, SVG Export Plug-In . SVG Version: 6.00 Build 0)  -->
<svg version="1.1" xmlns="http://www.w3.org/2000/svg" xmlns:xlink="http://www.w3.org/1999/xlink" x="0px" y="0px"
	 viewBox="0 0 128 128" style="enable-background:new 0 0 128 128;" xml:space="preserve">
<g id="_x39_">
	<path style="fill:#DDD9E2;" d="M93.661,126.098H42.372c-4.095,0-7.415,0-7.415,0V1.901c0,0,3.32,0,7.415,0h51.289
		c4.095,0,7.415,3.336,7.415,7.452v109.293C101.076,122.762,97.757,126.098,93.661,126.098z"/>
	<path style="fill:#CECBD1;" d="M98.076,127.961H88.1V1.901h9.977c1.657,0,3,1.343,3,3v120.06
		C101.076,126.618,99.733,127.961,98.076,127.961z"/>
	<path style="fill:#2E435B;" d="M95.372,128H32.628c-4.194,0-7.605-3.412-7.605-7.605V7.605C25.022,3.412,28.434,0,32.628,0h62.745
		c4.194,0,7.605,3.412,7.605,7.605v112.789C102.978,124.588,99.566,128,95.372,128z M32.628,3.803c-2.097,0-3.803,1.705-3.803,3.803
		v112.789c0,2.097,1.705,3.803,3.803,3.803h62.745c2.097,0,3.803-1.705,3.803-3.803V7.605c0-2.097-1.705-3.803-3.803-3.803H32.628z
		 M93.043,62.099H34.957v3.803h58.086V62.099z M39.694,76.443c2.21-2.936,6.383-3.525,9.319-1.315
		c2.936,2.21,3.525,6.383,1.315,9.319c-2.21,2.936-6.383,3.525-9.319,1.315S37.484,79.379,39.694,76.443z M78.987,114.348
		c2.936,2.21,7.109,1.622,9.319-1.315c2.21-2.936,1.622-7.109-1.315-9.319c-2.936-2.21-7.109-1.622-9.319,1.315
		C75.462,107.966,76.05,112.138,78.987,114.348z M64,39.916c3.675,0,6.655-2.979,6.655-6.655c0-3.675-2.979-6.655-6.655-6.655
		c-3.675,0-6.655,2.979-6.655,6.655C57.345,36.936,60.325,39.916,64,39.916z"/>
</g>
<g id="Layer_1">
</g>
</svg>
