<?xml version="1.0" encoding="iso-8859-1"?>
<!-- Generator: Adobe Illustrator 22.0.1, SVG Export Plug-In . SVG Version: 6.00 Build 0)  -->
<svg version="1.1" xmlns="http://www.w3.org/2000/svg" xmlns:xlink="http://www.w3.org/1999/xlink" x="0px" y="0px"
	 viewBox="0 0 128 128" style="enable-background:new 0 0 128 128;" xml:space="preserve">
<g id="_x32_4">
	<path style="fill:#DDD9E2;" d="M93.661,126.099H42.372c-4.095,0-7.415,0-7.415,0V1.902c0,0,3.32,0,7.415,0h51.289
		c4.095,0,7.415,3.336,7.415,7.452v109.293C101.076,122.763,97.757,126.099,93.661,126.099z"/>
	<path style="fill:#CECBD1;" d="M98.076,127.962H88.1V1.902h9.977c1.657,0,3,1.343,3,3v120.06
		C101.076,126.619,99.733,127.962,98.076,127.962z"/>
	<path style="fill:#2E435B;" d="M95.372,128H32.628c-4.194,0-7.605-3.411-7.605-7.605V7.605C25.022,3.411,28.434,0,32.628,0h62.745
		c4.194,0,7.605,3.411,7.605,7.605v112.789C102.978,124.589,99.566,128,95.372,128z M32.628,3.803c-2.097,0-3.803,1.706-3.803,3.803
		v112.789c0,2.096,1.705,3.803,3.803,3.803h62.745c2.097,0,3.803-1.706,3.803-3.803V7.605c0-2.096-1.705-3.803-3.803-3.803H32.628z
		 M93.043,62.099H34.957v3.803h58.086V62.099z M41.161,78.621c2.139-2.989,6.296-3.678,9.284-1.539
		c2.989,2.139,3.678,6.296,1.539,9.284s-6.296,3.678-9.284,1.539C39.712,85.766,39.022,81.61,41.161,78.621z M77.554,115.566
		c2.989,2.139,7.146,1.45,9.284-1.539s1.45-7.146-1.539-9.284s-7.146-1.45-9.284,1.539S74.565,113.427,77.554,115.566z
		 M60.127,101.736c2.989,2.139,7.146,1.45,9.284-1.539s1.45-7.146-1.539-9.284s-7.146-1.45-9.284,1.539
		S57.139,99.597,60.127,101.736z M85.3,87.905c-2.989,2.139-7.146,1.45-9.284-1.539s-1.45-7.146,1.539-9.284s7.146-1.45,9.284,1.539
		S88.288,85.766,85.3,87.905z M51.985,106.282c-2.139-2.989-6.296-3.678-9.284-1.539c-2.989,2.139-3.678,6.296-1.539,9.284
		s6.296,3.678,9.284,1.539C53.435,113.427,54.124,109.271,51.985,106.282z M39.694,14.967c2.21-2.936,6.383-3.525,9.319-1.315
		c2.936,2.21,3.525,6.383,1.315,9.319c-2.21,2.936-6.383,3.525-9.319,1.315S37.484,17.903,39.694,14.967z M78.987,52.872
		c2.936,2.21,7.109,1.622,9.319-1.315c2.21-2.936,1.622-7.109-1.315-9.319c-2.936-2.21-7.109-1.622-9.319,1.315
		C75.462,46.49,76.05,50.662,78.987,52.872z M86.991,24.286c-2.936,2.21-7.109,1.622-9.319-1.315
		c-2.21-2.936-1.622-7.109,1.315-9.319s7.109-1.622,9.319,1.315C90.516,17.903,89.927,22.075,86.991,24.286z M50.328,43.553
		c-2.21-2.936-6.383-3.525-9.319-1.315c-2.936,2.21-3.525,6.383-1.315,9.319c2.21,2.936,6.383,3.525,9.319,1.315
		C51.95,50.662,52.538,46.49,50.328,43.553z"/>
</g>
<g id="Layer_1">
</g>
</svg>
