<?xml version="1.0" encoding="iso-8859-1"?>
<!-- Generator: Adobe Illustrator 22.0.1, SVG Export Plug-In . SVG Version: 6.00 Build 0)  -->
<svg version="1.1" xmlns="http://www.w3.org/2000/svg" xmlns:xlink="http://www.w3.org/1999/xlink" x="0px" y="0px"
	 viewBox="0 0 128 128" style="enable-background:new 0 0 128 128;" xml:space="preserve">
<g id="_x32_7">
	<path style="fill:#DDD9E2;" d="M93.661,126.099H42.372c-4.095,0-7.415,0-7.415,0V1.902c0,0,3.32,0,7.415,0h51.289
		c4.095,0,7.415,3.336,7.415,7.452v109.293C101.076,122.763,97.757,126.099,93.661,126.099z"/>
	<path style="fill:#CECBD1;" d="M98.076,127.962H88.1V1.902h9.977c1.657,0,3,1.343,3,3v120.06
		C101.076,126.619,99.733,127.962,98.076,127.962z"/>
	<path style="fill:#2E435B;" d="M95.372,128H32.628c-4.194,0-7.605-3.411-7.605-7.605V7.605C25.022,3.411,28.433,0,32.628,0h62.745
		c4.194,0,7.605,3.411,7.605,7.605v112.789C102.978,124.589,99.567,128,95.372,128z M32.628,3.803c-2.096,0-3.803,1.706-3.803,3.803
		v112.789c0,2.096,1.706,3.803,3.803,3.803h62.745c2.096,0,3.803-1.706,3.803-3.803V7.605c0-2.096-1.706-3.803-3.803-3.803H32.628z
		 M93.044,62.099H34.956v3.803h58.088V62.099z M41.161,15.038c2.139-2.989,6.296-3.678,9.284-1.539
		c2.989,2.139,3.678,6.296,1.539,9.284s-6.296,3.678-9.284,1.539C39.712,22.184,39.022,18.027,41.161,15.038z M77.554,51.983
		c2.989,2.139,7.146,1.45,9.284-1.539c2.139-2.989,1.45-7.146-1.539-9.284s-7.146-1.45-9.284,1.539
		C73.876,45.688,74.565,49.845,77.554,51.983z M60.127,38.153c2.989,2.139,7.146,1.45,9.284-1.539
		c2.139-2.989,1.45-7.146-1.539-9.284s-7.146-1.45-9.284,1.539S57.139,36.014,60.127,38.153z M85.3,24.322
		c-2.989,2.139-7.146,1.45-9.284-1.539s-1.45-7.146,1.539-9.284s7.146-1.45,9.284,1.539S88.288,22.184,85.3,24.322z M51.985,42.699
		c-2.139-2.989-6.296-3.678-9.284-1.539c-2.989,2.139-3.678,6.296-1.539,9.284c2.139,2.989,6.296,3.678,9.284,1.539
		C53.435,49.845,54.124,45.688,51.985,42.699z M86.457,73.686c2.989,2.139,3.678,6.296,1.539,9.284s-6.296,3.678-9.284,1.539
		s-3.678-6.296-1.539-9.284S83.468,71.548,86.457,73.686z M49.289,84.51c2.989-2.139,3.678-6.296,1.539-9.284
		c-2.139-2.989-6.296-3.678-9.284-1.539c-2.989,2.139-3.678,6.296-1.539,9.284S46.3,86.649,49.289,84.51z M86.457,90.799
		c2.989,2.139,3.678,6.296,1.539,9.284s-6.296,3.678-9.284,1.539s-3.678-6.296-1.539-9.284S83.468,88.66,86.457,90.799z
		 M49.289,101.622c2.989-2.139,3.678-6.296,1.539-9.284c-2.139-2.989-6.296-3.678-9.284-1.539c-2.989,2.139-3.678,6.296-1.539,9.284
		S46.3,103.761,49.289,101.622z M86.457,107.911c2.989,2.139,3.678,6.296,1.539,9.284s-6.296,3.678-9.284,1.539
		s-3.678-6.296-1.539-9.284S83.468,105.772,86.457,107.911z M49.289,118.735c2.989-2.139,3.678-6.296,1.539-9.284
		c-2.139-2.989-6.296-3.678-9.284-1.539c-2.989,2.139-3.678,6.296-1.539,9.284S46.3,120.873,49.289,118.735z"/>
</g>
<g id="Layer_1">
</g>
</svg>
