<?xml version="1.0" encoding="iso-8859-1"?>
<!-- Generator: Adobe Illustrator 22.0.1, SVG Export Plug-In . SVG Version: 6.00 Build 0)  -->
<svg version="1.1" xmlns="http://www.w3.org/2000/svg" xmlns:xlink="http://www.w3.org/1999/xlink" x="0px" y="0px"
	 viewBox="0 0 128 128" style="enable-background:new 0 0 128 128;" xml:space="preserve">
<g id="_x32_0">
	<path style="fill:#DDD9E2;" d="M93.661,126.099H42.372c-4.095,0-7.415,0-7.415,0V1.902c0,0,3.32,0,7.415,0h51.289
		c4.095,0,7.415,3.336,7.415,7.452v109.293C101.076,122.763,97.757,126.099,93.661,126.099z"/>
	<path style="fill:#CECBD1;" d="M98.076,127.962H88.1V1.902h9.977c1.657,0,3,1.343,3,3v120.06
		C101.076,126.619,99.733,127.962,98.076,127.962z"/>
	<path style="fill:#2E435B;" d="M95.372,128H32.628c-4.194,0-7.605-3.411-7.605-7.605V7.605C25.022,3.411,28.433,0,32.628,0h62.745
		c4.194,0,7.605,3.411,7.605,7.605v112.789C102.978,124.589,99.567,128,95.372,128z M32.628,3.803c-2.096,0-3.803,1.706-3.803,3.803
		v112.789c0,2.096,1.706,3.803,3.803,3.803h62.745c2.096,0,3.803-1.706,3.803-3.803V7.605c0-2.096-1.706-3.803-3.803-3.803H32.628z
		 M93.044,62.099H34.956v3.803h58.088V62.099z M39.694,76.444c2.21-2.936,6.383-3.525,9.319-1.315
		c2.936,2.21,3.525,6.383,1.315,9.319c-2.21,2.936-6.383,3.525-9.319,1.315C38.073,83.553,37.484,79.38,39.694,76.444z
		 M78.987,114.349c2.936,2.21,7.109,1.622,9.319-1.315c2.21-2.936,1.622-7.109-1.315-9.319c-2.936-2.21-7.109-1.622-9.319,1.315
		C75.462,107.967,76.05,112.139,78.987,114.349z M86.991,85.763c-2.936,2.21-7.109,1.622-9.319-1.315
		c-2.21-2.936-1.622-7.109,1.315-9.319c2.936-2.21,7.109-1.622,9.319,1.315C90.516,79.38,89.927,83.553,86.991,85.763z
		 M50.328,105.03c-2.21-2.936-6.383-3.525-9.319-1.315c-2.936,2.21-3.525,6.383-1.315,9.319c2.21,2.936,6.383,3.525,9.319,1.315
		C51.95,112.139,52.538,107.967,50.328,105.03z M39.26,14.496c2.139-2.989,6.296-3.678,9.284-1.539
		c2.989,2.139,3.678,6.296,1.539,9.284s-6.296,3.678-9.284,1.539C37.81,21.642,37.121,17.485,39.26,14.496z M79.456,51.442
		c2.989,2.139,7.146,1.45,9.284-1.539c2.139-2.989,1.45-7.146-1.539-9.284s-7.146-1.45-9.284,1.539
		C75.778,45.146,76.467,49.303,79.456,51.442z M60.127,37.611c2.989,2.139,7.146,1.45,9.284-1.539
		c2.139-2.989,1.45-7.146-1.539-9.284s-7.146-1.45-9.284,1.539S57.139,35.472,60.127,37.611z"/>
</g>
<g id="Layer_1">
</g>
</svg>
