<?xml version="1.0" encoding="iso-8859-1"?>
<!-- Generator: Adobe Illustrator 22.0.1, SVG Export Plug-In . SVG Version: 6.00 Build 0)  -->
<svg version="1.1" xmlns="http://www.w3.org/2000/svg" xmlns:xlink="http://www.w3.org/1999/xlink" x="0px" y="0px"
	 viewBox="0 0 128 128" style="enable-background:new 0 0 128 128;" xml:space="preserve">
<g id="_x32_2">
	<path style="fill:#DDD9E2;" d="M93.661,126.099H42.372c-4.095,0-7.415,0-7.415,0V1.902c0,0,3.32,0,7.415,0h51.289
		c4.095,0,7.415,3.336,7.415,7.452v109.293C101.076,122.763,97.757,126.099,93.661,126.099z"/>
	<path style="fill:#CECBD1;" d="M98.076,127.962H88.1V1.902h9.977c1.657,0,3,1.343,3,3v120.06
		C101.076,126.619,99.733,127.962,98.076,127.962z"/>
	<path style="fill:#2E435B;" d="M95.372,128H32.628c-4.194,0-7.605-3.411-7.605-7.605V7.605C25.022,3.411,28.434,0,32.628,0h62.745
		c4.194,0,7.605,3.411,7.605,7.605v112.789C102.978,124.589,99.566,128,95.372,128z M32.628,3.803c-2.097,0-3.803,1.706-3.803,3.803
		v112.789c0,2.096,1.705,3.803,3.803,3.803h62.745c2.097,0,3.803-1.706,3.803-3.803V7.605c0-2.096-1.705-3.803-3.803-3.803H32.628z
		 M93.043,62.099H34.957v3.803h58.086V62.099z M39.26,14.291c2.139-2.989,6.296-3.678,9.284-1.539
		c2.989,2.139,3.678,6.296,1.539,9.284s-6.296,3.678-9.284,1.539C37.81,21.437,37.121,17.28,39.26,14.291z M79.456,51.237
		c2.989,2.139,7.146,1.45,9.284-1.539c2.139-2.989,1.45-7.146-1.539-9.284s-7.146-1.45-9.284,1.539
		C75.778,44.941,76.467,49.098,79.456,51.237z M60.127,37.406c2.989,2.139,7.146,1.45,9.284-1.539
		c2.139-2.989,1.45-7.146-1.539-9.284s-7.146-1.45-9.284,1.539S57.139,35.268,60.127,37.406z M86.457,72.736
		c2.989,2.139,3.678,6.296,1.539,9.284s-6.296,3.678-9.284,1.539s-3.678-6.296-1.539-9.284S83.468,70.597,86.457,72.736z
		 M49.289,83.56c2.989-2.139,3.678-6.296,1.539-9.284c-2.139-2.989-6.296-3.678-9.284-1.539c-2.989,2.139-3.678,6.296-1.539,9.284
		S46.3,85.699,49.289,83.56z M86.457,89.848c2.989,2.139,3.678,6.296,1.539,9.284s-6.296,3.678-9.284,1.539
		s-3.678-6.296-1.539-9.284S83.468,87.71,86.457,89.848z M49.289,100.672c2.989-2.139,3.678-6.296,1.539-9.284
		c-2.139-2.989-6.296-3.678-9.284-1.539c-2.989,2.139-3.678,6.296-1.539,9.284S46.3,102.811,49.289,100.672z M86.457,106.961
		c2.989,2.139,3.678,6.296,1.539,9.284s-6.296,3.678-9.284,1.539c-2.989-2.139-3.678-6.296-1.539-9.284
		C79.311,105.511,83.468,104.822,86.457,106.961z M49.289,117.784c2.989-2.139,3.678-6.296,1.539-9.284
		c-2.139-2.989-6.296-3.678-9.284-1.539c-2.989,2.139-3.678,6.296-1.539,9.284S46.3,119.923,49.289,117.784z"/>
</g>
<g id="Layer_1">
</g>
</svg>
