<svg version="1.1" id="Layer_1" xmlns="http://www.w3.org/2000/svg" xmlns:xlink="http://www.w3.org/1999/xlink" x="0px" y="0px"
	 width="100%" viewBox="0 0 752 704" enable-background="new 0 0 752 704" xml:space="preserve">
<path fill="#ffffff" opacity="1.000000" stroke="none" 
	d="
M34.912163,288.000000 
	C34.907162,209.845367 34.899452,132.190735 34.899296,54.536102 
	C34.899254,32.503075 48.715126,18.685043 70.813728,18.684050 
	C268.616425,18.675158 466.419098,18.685419 664.221802,18.668259 
	C679.379578,18.666943 691.042419,24.368805 697.596436,38.638836 
	C699.865662,43.579445 700.353210,48.839149 700.352173,54.223129 
	C700.323853,206.866135 700.325867,359.509155 700.324463,512.152161 
	C700.324036,557.645142 700.332458,603.138062 700.328186,648.631042 
	C700.326172,670.566406 686.707642,684.201721 664.837891,684.201172 
	C467.201843,684.196594 269.565796,684.191467 71.929741,684.192505 
	C48.218887,684.192627 34.904408,670.821228 34.904541,646.941467 
	C34.905205,527.460999 34.909378,407.980499 34.912163,288.000000 
M396.685486,177.631775 
	C437.934387,188.411865 473.491821,209.238586 503.844421,238.957794 
	C537.880981,272.284027 560.433533,312.292084 572.035950,358.460571 
	C572.927246,362.007141 574.153931,363.786469 578.282471,363.799713 
	C606.318298,363.889587 633.463379,369.274872 659.958069,378.210449 
	C665.245789,379.993713 670.494446,381.892853 675.522461,383.654907 
	C677.240051,381.725342 676.821594,379.980286 676.821899,378.374420 
	C676.842041,270.232178 676.844788,162.089935 676.815491,53.947689 
	C676.813110,45.315842 673.717773,42.325771 664.975586,42.325043 
	C531.838928,42.313980 398.702301,42.318176 265.565643,42.346027 
	C263.888214,42.346378 262.080414,41.990055 260.076935,43.137051 
	C263.597565,45.590267 266.765991,47.712742 269.840057,49.964077 
	C272.930420,52.227295 276.024323,54.503258 278.949524,56.971703 
	C313.013336,85.716789 335.262329,121.844521 346.109009,165.007156 
	C346.932922,168.285919 348.262726,169.655014 351.709167,169.962189 
	C366.622162,171.291382 381.461395,173.190979 396.685486,177.631775 
M394.588013,200.057220 
	C380.655518,196.182983 366.539429,193.418869 351.089844,192.634232 
	C354.239868,244.280731 343.805939,291.559479 307.697113,331.659485 
	C315.949890,329.489014 323.246887,327.537231 330.749176,326.340576 
	C360.176880,321.646790 387.513763,326.649872 412.054443,343.854218 
	C442.878632,365.463654 457.519897,395.968719 457.877716,433.022125 
	C458.083344,454.314941 450.025909,473.153717 436.114410,489.605011 
	C415.061310,514.501709 376.887909,525.651123 346.272308,515.237061 
	C313.269348,504.010803 292.661469,469.151886 298.810516,434.953552 
	C304.536102,403.110352 337.913483,380.973999 369.600372,388.004761 
	C403.469971,395.519775 419.558136,436.850891 398.930786,463.479919 
	C391.583282,472.965240 381.506897,477.628693 369.857208,479.274780 
	C365.776367,479.851410 363.536194,478.912476 364.388245,473.909668 
	C365.051575,470.014862 364.808441,465.924164 364.614838,461.937683 
	C364.451355,458.570801 365.823029,457.298370 369.064362,456.736877 
	C377.616913,455.255371 383.196320,449.958893 385.334839,441.720795 
	C389.147583,427.033386 376.450134,410.304199 361.133392,409.323242 
	C334.859711,407.640564 315.602173,429.804443 320.763062,455.575684 
	C326.698273,485.213776 354.187164,503.765930 387.842163,494.721008 
	C419.461884,486.223053 439.354156,453.693665 435.075104,421.763947 
	C429.598206,380.895691 397.015442,348.770355 355.867249,347.207092 
	C312.347870,345.553650 279.330841,364.259949 256.958649,401.337555 
	C242.864487,424.695862 240.151398,450.178284 244.060989,476.956085 
	C252.799316,536.807007 303.411163,588.781433 370.046783,593.549255 
	C407.539886,596.231995 442.624695,587.727234 474.305023,567.398621 
	C523.631531,535.746887 550.984375,490.191254 556.409729,431.998535 
	C558.484497,409.744446 556.595642,387.350586 550.877075,365.602539 
	C528.995483,282.385773 477.361481,227.012497 394.588013,200.057220 
M466.861084,616.455933 
	C469.216400,611.865601 471.421326,607.189819 473.969421,602.709106 
	C476.506409,598.247864 479.387939,593.982483 482.580017,588.895569 
	C481.220551,589.550537 480.762939,589.744507 480.330048,589.983276 
	C441.576813,611.362366 400.426849,620.601196 356.265778,614.311401 
	C327.367615,610.195435 301.553284,598.741699 279.251282,580.051331 
	C242.037781,548.864258 222.121078,509.049896 220.512100,460.184448 
	C219.784531,438.087402 223.922012,417.251770 233.582382,397.405182 
	C237.883057,388.569763 243.443283,380.555908 249.616669,372.226440 
	C248.459702,372.470123 247.981598,372.513611 247.544525,372.671021 
	C219.917404,382.623962 191.765091,385.707825 162.650681,380.395355 
	C118.601173,372.357758 85.769287,349.330261 65.363602,309.202698 
	C62.898834,304.355804 60.933872,299.254761 58.348942,293.390533 
	C58.348942,411.896484 58.347309,529.362305 58.351631,646.828125 
	C58.352036,657.849182 61.201538,660.683228 72.247299,660.683228 
	C197.379715,660.683289 322.512115,660.679993 447.644531,660.677124 
	C448.810852,660.677063 449.982117,660.600098 451.142578,660.680908 
	C454.224670,660.895630 455.404480,659.675293 455.786102,656.426880 
	C457.385101,642.815674 460.781067,629.646301 466.861084,616.455933 
M226.055084,285.600586 
	C209.200806,299.358765 189.984726,305.367401 168.376755,302.312134 
	C129.417679,296.803589 112.082924,260.882263 116.417389,233.652664 
	C120.760094,206.371353 145.144669,186.412048 174.270416,190.620712 
	C199.534653,194.271378 216.290085,219.880585 209.084045,244.307419 
	C203.389130,263.611847 182.086838,275.267181 164.546753,268.363953 
	C164.889038,262.591797 167.578598,257.314941 168.801544,251.695541 
	C169.416061,248.871826 170.878784,247.743240 174.035614,247.766190 
	C181.443756,247.820038 185.788605,244.229233 187.828293,237.176086 
	C190.211227,228.936035 186.414948,219.938156 178.646683,215.413956 
	C167.170395,208.730225 150.755569,212.695892 143.355103,224.271240 
	C136.653885,234.752823 136.363037,246.061859 141.091873,257.256012 
	C150.365967,279.209778 174.175827,285.835266 196.433090,277.598541 
	C219.015793,269.241394 231.757187,247.444962 228.980835,221.168762 
	C226.276901,195.578156 213.326813,176.919693 189.697327,167.081650 
	C156.686752,153.337845 116.622841,162.717163 92.509155,193.999680 
	C75.665657,215.850616 71.363617,241.186859 75.455078,267.787689 
	C80.952492,303.529480 100.162697,330.328308 132.108795,347.219452 
	C154.770096,359.201355 179.276459,362.485565 204.781723,359.860931 
	C238.793671,356.360870 267.257416,341.630798 290.533936,317.210236 
	C317.345856,289.080566 328.341095,254.295792 329.544617,216.165161 
	C330.254059,193.688080 326.513763,171.736298 318.530334,150.640182 
	C300.325256,102.533371 268.015259,67.871094 220.332138,47.889198 
	C211.171875,44.050537 201.892914,42.063995 191.783020,42.159508 
	C151.795334,42.537289 111.801964,42.310581 71.810707,42.320305 
	C61.356689,42.322845 58.352604,45.278030 58.350101,55.557697 
	C58.338085,104.880234 58.337708,154.202774 58.333218,203.525314 
	C58.333057,205.272858 58.333199,207.020416 58.333199,209.227814 
	C58.925465,208.536148 59.201550,208.334625 59.314384,208.064819 
	C75.863266,168.494949 105.041489,144.907532 147.809204,139.541229 
	C174.733032,136.162949 199.393173,142.675232 220.638458,160.146362 
	C258.097382,190.950851 263.289825,252.880569 226.055084,285.600586 
M668.476624,405.111969 
	C640.928894,393.469604 612.332336,386.627991 582.319458,386.136841 
	C578.890747,386.080719 576.921143,386.599518 577.515808,390.792816 
	C579.815613,407.011108 579.988403,423.311737 578.109680,439.561432 
	C573.891296,476.049957 561.172119,509.219116 538.695374,538.464905 
	C537.579346,539.916992 536.425537,541.340576 535.329895,542.807739 
	C534.339539,544.133972 533.404724,545.501709 532.187012,547.214661 
	C584.139099,524.240601 632.483459,525.856812 676.829041,565.425964 
	C676.829041,562.413269 676.828796,560.447083 676.829041,558.480896 
	C676.834778,511.343414 676.697571,464.204987 677.014038,417.069580 
	C677.057007,410.662811 675.261536,406.967133 668.476624,405.111969 
M660.887695,660.689453 
	C661.886841,660.687927 662.885925,660.687927 663.885071,660.684509 
	C674.263977,660.649048 676.831482,658.091248 676.844055,647.685852 
	C676.859375,635.029602 676.614441,622.367310 676.945557,609.719788 
	C677.089539,604.218445 675.540955,599.674316 672.383789,595.370239 
	C649.038757,563.544067 617.351990,550.086182 578.760254,555.810547 
	C536.564575,562.069580 506.269287,585.827332 487.746002,624.251221 
	C482.326569,635.493103 478.695190,647.372070 477.967529,659.801331 
	C479.633636,661.048218 481.186768,660.660461 482.639618,660.662964 
	C499.459106,660.691956 516.280762,660.535583 533.096802,660.777954 
	C537.410034,660.840088 538.942810,659.161377 539.577209,655.225281 
	C544.366699,625.510193 564.949158,605.042664 594.423706,600.515747 
	C628.764099,595.241516 658.801208,622.476013 656.768494,657.184021 
	C656.600647,660.049744 657.593384,660.784180 660.887695,660.689453 
M575.510498,660.681885 
	C592.822937,660.681396 610.135315,660.690186 627.447754,660.675415 
	C633.657837,660.670105 634.557617,659.738892 634.652039,653.432495 
	C634.850891,640.148987 625.124512,626.789368 611.804932,623.377930 
	C589.363037,617.630310 566.124756,633.039734 561.575806,657.279114 
	C561.121277,659.700867 562.195374,660.681396 564.529846,660.666443 
	C567.858887,660.645020 571.188293,660.673889 575.510498,660.681885 
z"/>
</svg>