<svg version="1.1" id="Layer_1" xmlns="http://www.w3.org/2000/svg" xmlns:xlink="http://www.w3.org/1999/xlink" x="0px" y="0px"
	 width="100%" viewBox="0 0 864 848" enable-background="new 0 0 864 848" xml:space="preserve">
<path fill="#ffffff" opacity="1.000000" stroke="none" 
	d="
M847.303040,286.000061 
	C847.302551,456.993195 847.290100,627.486328 847.324646,797.979431 
	C847.327209,810.738831 843.535522,821.797119 834.210632,830.823181 
	C826.085327,838.688171 816.275085,842.175537 805.217041,842.181763 
	C708.054321,842.236633 610.891541,842.210083 513.728821,842.208679 
	C362.401581,842.206482 211.074356,842.188416 59.747139,842.225281 
	C41.499500,842.229675 27.463642,835.259094 19.121027,818.502502 
	C15.619232,811.468994 14.931038,803.840942 14.931209,796.124573 
	C14.935675,594.299377 14.947701,392.474243 14.953898,190.649078 
	C14.955301,144.984253 14.911456,99.319420 14.945782,53.654636 
	C14.960464,34.123039 24.422747,19.988024 42.123264,12.773390 
	C48.435207,10.200677 55.120148,10.034600 61.767677,10.033802 
	C270.259247,10.008784 478.750793,10.023766 687.242371,10.031514 
	C725.074158,10.032921 762.906067,10.065103 800.737793,10.008129 
	C813.294434,9.989221 824.842590,12.597458 834.276245,21.582945 
	C843.709717,30.568300 847.261292,41.867462 847.267456,54.509811 
	C847.304871,131.506546 847.296143,208.503296 847.303040,286.000061 
M212.138016,569.408142 
	C215.607590,572.080811 217.109482,574.833557 213.601959,578.832947 
	C211.891556,580.783203 211.414719,583.603088 211.300278,586.349976 
	C210.723129,600.204590 225.447403,611.461914 240.016891,608.253296 
	C261.407593,603.542419 272.111877,576.127380 260.287964,556.336670 
	C249.129410,537.659607 223.453094,528.912781 202.437988,536.629578 
	C166.037338,549.995972 152.146164,601.228394 176.240509,633.249084 
	C204.124619,670.306152 258.492767,678.669434 295.268768,650.384399 
	C326.352783,626.477356 340.353271,594.097900 337.879669,554.750793 
	C336.489868,532.643799 329.525299,512.381165 315.469940,495.445679 
	C283.603271,457.049316 242.365295,439.439545 192.434738,443.115601 
	C162.844910,445.294067 136.198181,455.498352 113.745239,475.016632 
	C63.415600,518.768005 43.372860,574.518127 51.759514,640.064331 
	C57.002110,681.038086 75.821350,716.007874 105.707726,744.616150 
	C150.816681,787.796021 204.619827,809.736084 267.234650,810.059875 
	C299.361389,810.226074 330.029388,803.709839 359.458740,791.177246 
	C385.018280,780.292603 407.707977,764.940369 427.676453,745.652466 
	C430.958771,742.481995 433.194885,742.426941 436.323853,745.647339 
	C442.133514,751.626526 448.562836,756.929138 455.183685,762.013184 
	C505.664764,800.777100 562.890686,815.673218 625.616333,808.348755 
	C672.470459,802.877502 714.106750,784.150452 749.451355,752.674194 
	C797.445068,709.932983 819.423096,656.599609 812.766296,592.201477 
	C809.195984,557.662292 796.078857,526.916809 774.581299,499.784210 
	C747.052124,465.038788 711.336548,444.889709 666.839722,442.646790 
	C627.182373,440.647827 592.124573,453.035919 562.569458,480.137878 
	C537.545532,503.084778 525.055908,531.559570 525.490540,565.327026 
	C525.760986,586.342529 532.020386,605.831360 543.366943,623.753479 
	C567.235291,661.453979 609.612061,676.892700 650.529419,661.419189 
	C684.619324,648.527588 707.002686,616.110718 697.549438,578.816223 
	C690.729431,551.909973 667.401123,527.909180 632.722168,535.350281 
	C614.329956,539.296753 600.161560,554.765991 598.975403,572.131104 
	C597.627563,591.861267 612.407471,612.258911 634.431946,607.727783 
	C650.271057,604.469238 657.623901,588.698486 649.435425,577.380371 
	C647.528442,574.744629 648.082397,573.069702 650.242432,571.014832 
	C655.070618,566.421631 659.818481,561.730774 664.372009,556.867188 
	C666.799194,554.274658 668.504517,554.294556 670.788513,557.004211 
	C678.794250,566.501831 682.684448,577.602234 682.019287,589.777649 
	C680.204346,623.003174 647.274658,643.226807 616.509827,636.420837 
	C574.811279,627.196228 555.436218,574.530762 581.169922,537.391846 
	C605.820068,501.816803 658.388245,492.340393 695.549255,522.935486 
	C732.513428,553.368591 739.659485,609.017944 712.600098,648.553406 
	C681.895142,693.415100 619.057190,709.536316 569.218079,685.164368 
	C515.118225,658.708801 485.240967,592.121887 500.271667,530.174744 
	C509.992279,490.112610 534.123657,460.674652 568.594360,439.066193 
	C576.602417,434.046173 585.148560,430.060608 594.265015,425.873474 
	C592.518188,424.981628 591.391418,424.341095 590.213501,423.814819 
	C574.133179,416.630249 559.362732,407.411438 546.087463,395.787933 
	C517.207092,370.501099 500.134521,338.859253 496.927582,300.622009 
	C493.697235,262.105560 504.659271,227.621246 529.555054,197.675583 
	C563.062622,157.371338 617.149109,143.987289 665.081787,164.442688 
	C699.753784,179.239029 732.984314,213.720505 728.328491,265.505188 
	C726.295288,288.119568 717.148621,307.619293 701.092651,323.501434 
	C681.197998,343.180664 656.832581,350.307434 629.555359,345.117462 
	C588.331055,337.273804 561.511719,300.069244 571.817688,260.229492 
	C584.059204,212.907944 635.373901,200.234268 666.987183,228.763718 
	C685.185913,245.187332 687.028687,276.737854 670.671082,294.780121 
	C668.653992,297.004913 667.177002,297.302521 665.003174,295.026489 
	C660.284851,290.086273 655.465637,285.234680 650.521118,280.521576 
	C648.234253,278.341797 647.776367,276.741150 649.708618,273.788239 
	C655.043518,265.635376 653.526367,255.835785 646.126648,249.433594 
	C638.276978,242.642105 629.049438,241.089462 619.457642,244.498108 
	C604.202881,249.919235 595.538574,268.877991 599.984131,285.942749 
	C605.770203,308.152863 630.647278,320.004608 651.293884,317.295258 
	C680.553467,313.455627 697.900391,285.614349 699.502808,261.181213 
	C701.003052,238.304214 692.762146,219.287323 674.741699,204.523193 
	C643.539490,178.959229 598.876892,177.485794 567.814819,201.346436 
	C521.991516,236.546082 510.937317,304.807190 545.283264,351.275452 
	C577.092224,394.311249 621.066528,412.587402 674.390991,407.851654 
	C706.237549,405.023376 733.974609,392.346283 756.910217,370.336121 
	C800.475037,328.528900 818.888489,277.108490 812.715942,217.103394 
	C809.130798,182.250793 796.728516,150.401657 773.799316,124.011497 
	C717.387512,59.084839 645.801758,32.408176 560.600342,44.325367 
	C512.326965,51.077404 470.694702,72.426743 435.661102,106.365738 
	C432.465881,109.461121 430.733826,108.577797 427.952332,106.009224 
	C371.989227,54.329750 306.242279,32.952408 230.799561,44.369881 
	C173.870361,52.985523 126.349350,79.726692 89.826973,124.385696 
	C56.271091,165.417328 44.653599,213.175537 51.709709,265.265930 
	C55.893070,296.148773 67.886047,324.281342 87.255226,348.895874 
	C121.114754,391.924835 164.758698,413.155884 220.156570,407.809448 
	C248.547440,405.069427 273.572815,394.259918 295.386169,376.144165 
	C325.679016,350.986420 340.739685,318.996613 337.777496,279.191620 
	C336.068756,256.230103 327.687042,235.982574 313.454559,217.980545 
	C282.225891,178.480865 226.740265,172.757462 188.281860,205.153229 
	C164.647736,225.061630 157.638046,256.849335 170.727386,284.759430 
	C182.027435,308.854248 203.902802,320.976776 228.609985,316.593445 
	C247.892990,313.172455 267.233490,296.405853 264.820068,272.336945 
	C262.997437,254.159943 247.973206,240.682175 230.491959,243.426590 
	C211.807434,246.359940 206.662018,264.280365 214.757263,274.376984 
	C215.683914,275.532745 216.746033,276.920227 215.311432,278.373291 
	C209.047409,284.717926 202.730682,291.010529 196.654404,297.100220 
	C194.100235,296.164062 193.017426,294.624817 191.958755,293.167999 
	C181.270432,278.460449 178.522858,262.470856 185.462341,245.525986 
	C196.279236,219.113083 228.402603,206.765991 256.505035,217.823792 
	C285.839172,229.366241 301.550446,265.889923 290.997925,297.565491 
	C276.452942,341.225311 220.935471,359.806030 179.939743,336.565125 
	C139.251694,313.498627 122.073997,257.556671 145.208344,213.453110 
	C163.939941,177.743011 195.055176,159.557770 234.747787,155.665405 
	C264.244843,152.772842 290.925995,160.741837 314.427917,178.492523 
	C361.130005,213.765961 379.956726,280.909485 359.076202,336.334595 
	C343.633911,377.324432 314.249603,404.881531 275.248901,423.145264 
	C273.543823,423.943665 271.527191,424.298828 270.066559,426.055450 
	C296.148376,437.134827 318.496368,452.791809 336.173279,474.544769 
	C360.228668,504.147034 370.099365,538.492065 366.983307,576.152649 
	C364.501373,606.149780 352.532990,632.496338 332.793640,655.519836 
	C299.039093,694.890320 243.410233,707.671387 196.659225,686.165283 
	C150.041290,664.720520 126.497032,619.890564 137.779404,572.428223 
	C149.124191,524.703491 193.836823,494.892792 239.909622,507.666229 
	C278.672363,518.412964 301.601685,553.737976 292.139252,591.507446 
	C281.763000,632.924622 235.734055,650.937500 202.197327,626.767456 
	C179.337494,610.292297 175.014435,578.908447 192.516129,557.542542 
	C195.199890,554.266174 197.126877,553.999512 200.011932,557.195862 
	C203.691879,561.272888 207.744827,565.013367 212.138016,569.408142 
M94.640106,398.888062 
	C74.025581,381.735992 58.168770,360.685730 44.814709,336.595276 
	C44.814709,395.791626 44.814709,453.799835 44.814709,511.808014 
	C45.166786,512.003052 45.518860,512.198120 45.870937,512.393188 
	C67.735458,473.790955 97.149170,443.361420 139.406342,425.875824 
	C123.014229,418.625916 108.312790,410.272919 94.640106,398.888062 
M817.906616,350.588470 
	C817.906616,347.549255 817.906616,344.510040 817.906616,341.470825 
	C795.151917,378.772949 766.079468,408.227112 724.252930,425.792511 
	C766.375183,443.323883 795.310730,473.018463 817.896729,509.966034 
	C817.896729,457.164520 817.896729,404.363007 817.906616,350.588470 
M108.129700,785.414795 
	C82.376228,765.242493 60.558113,741.640686 44.969051,712.487061 
	C44.447659,714.012878 44.311859,715.292969 44.311680,716.573059 
	C44.307808,744.368042 44.302063,772.163025 44.337654,799.958008 
	C44.348423,808.370117 48.797962,812.791199 57.292557,812.795288 
	C86.252548,812.809204 115.212578,812.782837 144.172501,812.725830 
	C145.905930,812.722412 147.784424,813.201721 149.875366,811.661560 
	C135.181488,804.171814 121.625793,795.501343 108.129700,785.414795 
M129.188675,51.631397 
	C135.709351,47.810703 142.230026,43.990009 148.750702,40.169315 
	C148.677521,39.890469 148.604324,39.611622 148.531143,39.332775 
	C146.068832,39.332775 143.606522,39.332676 141.144211,39.332787 
	C113.510124,39.334053 85.876030,39.321751 58.241955,39.344051 
	C48.642033,39.351799 44.333530,43.717342 44.324821,53.446800 
	C44.301277,79.749092 44.301624,106.051437 44.343998,132.353683 
	C44.346489,133.900421 43.680481,135.693985 45.933086,137.495422 
	C65.789299,101.485817 94.026764,73.656456 129.188675,51.631397 
M766.816406,776.336243 
	C750.604797,790.466309 732.736694,802.143188 713.233765,811.886902 
	C715.057922,813.157043 716.581299,812.752502 718.006958,812.754211 
	C746.307739,812.787476 774.608459,812.799072 802.909241,812.790222 
	C814.335144,812.786621 817.873108,809.278870 817.884644,797.975342 
	C817.910889,772.171692 817.921570,746.367981 817.915894,720.564331 
	C817.915527,719.005493 817.716064,717.446594 817.520142,714.585388 
	C804.187683,738.926941 787.210754,758.600159 766.816406,776.336243 
M724.731384,45.702427 
	C763.240662,67.612534 794.826599,96.726456 817.358093,135.354309 
	C817.828125,106.853088 817.927063,78.723557 817.758911,50.595634 
	C817.716614,43.533676 813.043030,39.378910 805.793335,39.361115 
	C777.154419,39.290833 748.515198,39.316765 719.876099,39.345715 
	C718.648438,39.346958 717.189758,38.858803 716.104004,40.462971 
	C718.312500,42.842106 721.538025,43.576538 724.731384,45.702427 
M454.500000,812.832397 
	C462.747681,812.832397 470.995331,812.832397 480.225159,812.832397 
	C479.006104,811.759705 478.719940,811.389954 478.343384,811.193542 
	C462.961792,803.167236 448.375458,793.898132 434.799255,783.089417 
	C432.394684,781.175049 430.722107,781.971313 428.663147,783.492188 
	C422.912537,787.740295 417.101074,791.909180 411.240021,796.003906 
	C402.733185,801.947021 393.499878,806.719849 384.752777,812.831421 
	C407.668518,812.831421 430.584259,812.831421 454.500000,812.832397 
M440.500061,39.317822 
	C422.452667,39.317822 404.405273,39.317822 385.657379,39.317822 
	C386.530182,40.499985 386.719421,41.015778 387.080902,41.208530 
	C401.933533,49.128643 416.153351,58.036087 429.413666,68.423859 
	C431.870209,70.348213 433.653320,69.187897 435.601227,67.676003 
	C442.964386,61.961094 450.477234,56.455467 458.545837,51.757172 
	C465.195007,47.885399 471.860992,44.042545 478.519531,40.186874 
	C478.443787,39.897427 478.368073,39.607983 478.292328,39.318535 
	C466.028259,39.318535 453.764160,39.318535 440.500061,39.317822 
z"/>
</svg>