<svg xmlns="http://www.w3.org/2000/svg" viewBox="0 0 64 64"><defs><style>.cls-1{isolation:isolate;}.cls-2{fill:#13a3c7;}.cls-3{fill:#fab00b;}.cls-4{fill:none;stroke:#000;stroke-linecap:round;stroke-linejoin:round;stroke-width:2px;}.cls-5{opacity:0.25;mix-blend-mode:multiply;}.cls-6,.cls-7{mix-blend-mode:overlay;}.cls-7{fill:#fff;}</style></defs><title>Icon Color</title><g class="cls-1"><g id="Layer_1" data-name="Layer 1"><g id="Vector"><rect class="cls-2" x="7.86" y="3.17" width="48.28" height="7.68" rx="3.35"/><path class="cls-2" d="M53.54,20.22v.51A17.24,17.24,0,0,1,50.85,30l-.49,0c-4.6,0-4.6-4.4-9.19-4.4S36.58,30,32,30s-4.58-4.4-9.18-4.4S18.23,30,13.63,30h-.48a17.24,17.24,0,0,1-2.69-9.3v-.51a5.18,5.18,0,0,0,3.17,1c4.6,0,4.6-4.41,9.18-4.41S27.41,21.2,32,21.2s4.59-4.41,9.18-4.41,4.59,4.41,9.19,4.41A5.26,5.26,0,0,0,53.54,20.22Z"/><path class="cls-3" d="M50.36,30l.49,0a17.33,17.33,0,0,1-14.68,8.09H27.83A17.35,17.35,0,0,1,13.15,30h.48c4.6,0,4.6-4.4,9.18-4.4S27.41,30,32,30s4.59-4.4,9.18-4.4S45.76,30,50.36,30Z"/><path class="cls-3" d="M53.54,10.85v9.37a5.26,5.26,0,0,1-3.18,1c-4.6,0-4.6-4.41-9.19-4.41S36.58,21.2,32,21.2s-4.58-4.41-9.18-4.41-4.58,4.41-9.18,4.41a5.18,5.18,0,0,1-3.17-1V10.85Z"/><rect class="cls-3" x="29.54" y="38.11" width="4.91" height="18.05"/><rect class="cls-2" x="21.99" y="56.29" width="20.02" height="4.54" rx="1.98"/></g><g id="Line"><rect class="cls-4" x="7.86" y="3.17" width="48.28" height="7.68" rx="3.35"/><path class="cls-4" d="M53.54,20.22v.51A17.24,17.24,0,0,1,50.85,30l-.49,0c-4.6,0-4.6-4.4-9.19-4.4S36.58,30,32,30s-4.58-4.4-9.18-4.4S18.23,30,13.63,30h-.48a17.24,17.24,0,0,1-2.69-9.3v-.51a5.18,5.18,0,0,0,3.17,1c4.6,0,4.6-4.41,9.18-4.41S27.41,21.2,32,21.2s4.59-4.41,9.18-4.41,4.59,4.41,9.19,4.41A5.26,5.26,0,0,0,53.54,20.22Z"/><path class="cls-4" d="M50.36,30l.49,0a17.33,17.33,0,0,1-14.68,8.09H27.83A17.35,17.35,0,0,1,13.15,30h.48c4.6,0,4.6-4.4,9.18-4.4S27.41,30,32,30s4.59-4.4,9.18-4.4S45.76,30,50.36,30Z"/><path class="cls-4" d="M53.54,10.85v9.37a5.26,5.26,0,0,1-3.18,1c-4.6,0-4.6-4.41-9.19-4.41S36.58,21.2,32,21.2s-4.58-4.41-9.18-4.41-4.58,4.41-9.18,4.41a5.18,5.18,0,0,1-3.17-1V10.85Z"/><rect class="cls-4" x="29.54" y="38.11" width="4.91" height="18.05"/><rect class="cls-4" x="21.99" y="56.29" width="20.02" height="4.54" rx="1.98"/></g><g id="Shadow" class="cls-5"><path d="M56.14,7.5v-1a3.35,3.35,0,0,0-3.35-3.35H44.32a3.35,3.35,0,0,1,3.36,3.35v1a3.35,3.35,0,0,1-3.36,3.35h8.47A3.35,3.35,0,0,0,56.14,7.5Z"/><path d="M45.08,10.85v9.88A17.38,17.38,0,0,1,31.79,37.61v.5h4.38A17.38,17.38,0,0,0,53.54,20.73V10.85Z"/><rect x="31.79" y="38.11" width="2.67" height="18.05"/><path d="M40,56.29H31.79v0a2,2,0,0,1,1.75,2v.58a2,2,0,0,1-2,2H40a2,2,0,0,0,2-2v-.58A2,2,0,0,0,40,56.29Z"/></g><g id="Highligth" class="cls-6"><g class="cls-6"><path class="cls-7" d="M24,60.83h5a2,2,0,0,1-2-2v-.58a2,2,0,0,1,2-2H24a2,2,0,0,0-2,2v.58A2,2,0,0,0,24,60.83Z"/><path class="cls-7" d="M27.83,38.11h5A17.36,17.36,0,0,1,15.46,20.73V10.85h-5v9.88A17.36,17.36,0,0,0,27.83,38.11Z"/><path class="cls-7" d="M7.86,6.52v1a3.35,3.35,0,0,0,3.35,3.35h5A3.35,3.35,0,0,1,12.86,7.5v-1a3.35,3.35,0,0,1,3.35-3.35h-5A3.35,3.35,0,0,0,7.86,6.52Z"/><rect class="cls-7" x="29.54" y="38.11" width="4.91" height="18.05"/></g></g></g></g></svg>