<?xml version="1.0" encoding="iso-8859-1"?>
<!-- Generator: Adobe Illustrator 19.0.0, SVG Export Plug-In . SVG Version: 6.00 Build 0)  -->
<svg version="1.1" id="Layer_1" xmlns="http://www.w3.org/2000/svg" xmlns:xlink="http://www.w3.org/1999/xlink" x="0px" y="0px"
	 viewBox="0 0 511.999 511.999" style="enable-background:new 0 0 511.999 511.999;" xml:space="preserve">
<rect x="201.286" y="179.421" style="fill:#A4A9AD;" width="109.42" height="81.419"/>
<rect x="201.286" y="179.421" style="opacity:0.1;enable-background:new    ;" width="109.42" height="38.974"/>
<circle style="fill:#C3C6C8;" cx="255.996" cy="371.499" r="132.501"/>
<circle style="opacity:0.1;enable-background:new    ;" cx="255.996" cy="371.499" r="88.932"/>
<path style="fill:#72D54A;" d="M414.622,18.794c0-5.936-4.855-10.79-10.79-10.79H108.168c-5.935,0-10.79,4.855-10.79,10.79v73.704
	c0,5.935,3.167,14.472,7.037,18.97l67.908,78.928c3.87,4.499,11.894,8.179,17.828,8.179h131.696c5.934,0,13.957-3.68,17.828-8.179
	l67.91-78.928c3.871-4.499,7.038-13.036,7.038-18.97L414.622,18.794L414.622,18.794z"/>
<path style="opacity:0.2;enable-background:new    ;" d="M266.166,416.115c-5.592-1.989-14.741-1.989-20.333,0l-19.794,7.04
	c-5.593,1.988-10.034-1.239-9.871-7.172l0.578-21c0.163-5.933-2.666-14.635-6.284-19.339l-12.81-16.65
	c-3.62-4.704-1.923-9.926,3.77-11.604l20.15-5.939c5.693-1.679,13.095-7.057,16.45-11.951l11.876-17.328
	c3.356-4.896,8.845-4.896,12.201,0l11.877,17.328c3.355,4.895,10.758,10.273,16.45,11.951l20.15,5.939
	c5.692,1.677,7.389,6.9,3.77,11.604l-12.81,16.65c-3.619,4.704-6.446,13.406-6.284,19.339l0.577,21
	c0.163,5.933-4.278,9.16-9.87,7.172L266.166,416.115z"/>
<rect x="215.724" y="8.003" style="opacity:0.2;enable-background:new    ;" width="80.566" height="190.573"/>
<g style="opacity:0.1;">
	<path d="M247.678,260.837c0-4.595,3.724-8.319,8.32-8.319c4.598,0,8.322,3.724,8.322,8.32c0.002,4.598-3.722,8.322-8.322,8.322
		C251.405,269.158,247.678,265.434,247.678,260.837z"/>
	<circle cx="177.756" cy="293.249" r="8.321"/>
	<path d="M145.344,379.815c-4.595,0-8.319-3.724-8.319-8.319c0-4.599,3.724-8.323,8.32-8.323c4.597-0.002,8.322,3.722,8.322,8.322
		C153.664,376.088,149.94,379.816,145.344,379.815z"/>
	<path d="M183.637,455.622c-3.248,3.249-8.515,3.249-11.763,0c-3.253-3.251-3.254-8.518-0.003-11.768
		c3.248-3.253,8.518-3.253,11.769,0C186.887,447.104,186.888,452.373,183.637,455.622z"/>
	<path d="M264.32,482.149c0,4.594-3.723,8.318-8.318,8.318c-4.598,0-8.324-3.722-8.324-8.32c-0.002-4.597,3.723-8.322,8.323-8.322
		C260.595,473.827,264.322,477.551,264.32,482.149z"/>
	<path d="M340.129,443.855c3.248,3.248,3.248,8.514,0,11.763c-3.253,3.253-8.519,3.255-11.769,0.003
		c-3.251-3.249-3.253-8.518,0.001-11.77C331.61,440.604,336.878,440.603,340.129,443.855z"/>
	<path d="M366.656,363.173c4.594,0,8.317,3.723,8.317,8.317c0,4.6-3.722,8.327-8.319,8.325c-4.597,0.001-8.323-3.723-8.323-8.323
		C358.332,366.896,362.058,363.172,366.656,363.173z"/>
</g>
<path style="fill:#1E252B;" d="M159.063,371.494c0,53.452,43.485,96.937,96.937,96.937s96.938-43.485,96.938-96.937
	c0-53.451-43.486-96.936-96.938-96.936C202.548,274.558,159.063,318.044,159.063,371.494z M336.931,371.494
	c0,44.625-36.306,80.931-80.932,80.931c-44.625,0-80.931-36.305-80.931-80.931c0-44.624,36.305-80.93,80.931-80.93
	C300.625,290.565,336.931,326.87,336.931,371.494z M403.831,0H108.168C97.805,0,89.374,8.43,89.374,18.794v73.704
	c0,7.844,3.858,18.244,8.973,24.19l67.909,78.928c5.377,6.249,15.649,10.962,23.894,10.962h3.137v39.206
	c-46.081,23.082-77.794,70.758-77.794,125.709c0,77.474,63.03,140.506,140.506,140.506s140.507-63.03,140.507-140.506
	c0-54.951-31.714-102.627-77.794-125.709v-39.205h3.135c8.244,0,18.517-4.713,23.894-10.962l67.91-78.928
	c5.116-5.946,8.974-16.345,8.974-24.19V18.795C422.625,8.43,414.194,0,403.831,0z M380.499,371.494
	c0,68.649-55.851,124.499-124.5,124.499S131.5,440.144,131.5,371.494s55.85-124.5,124.499-124.5S380.499,302.845,380.499,371.494z
	 M209.294,238.978v-32.399h93.41v32.399c-14.62-5.168-30.339-7.99-46.706-7.99S223.914,233.81,209.294,238.978z M406.618,92.499
	c0,4.021-2.479,10.703-5.101,13.751l-67.91,78.928c-2.343,2.723-8.169,5.396-11.762,5.396H190.151c-3.593,0-9.418-2.673-11.76-5.396
	l-67.908-78.928c-2.622-3.047-5.101-9.73-5.101-13.751V18.795c0-1.511,1.276-2.787,2.787-2.787h295.662
	c1.51,0,2.787,1.276,2.787,2.787V92.499z"/>
<circle style="fill:#FFFFFF;" cx="320.747" cy="305.072" r="27.39"/>
<g>
</g>
<g>
</g>
<g>
</g>
<g>
</g>
<g>
</g>
<g>
</g>
<g>
</g>
<g>
</g>
<g>
</g>
<g>
</g>
<g>
</g>
<g>
</g>
<g>
</g>
<g>
</g>
<g>
</g>
</svg>
