<svg xmlns="http://www.w3.org/2000/svg" viewBox="0 0 64 64"><defs><style>.cls-1{isolation:isolate;}.cls-2{fill:#2f4f59;}.cls-3{fill:#d2dad8;}.cls-4{fill:#677575;}.cls-5{fill:none;stroke:#000;stroke-linecap:round;stroke-linejoin:round;stroke-width:2px;}.cls-6{opacity:0.25;mix-blend-mode:multiply;}.cls-7,.cls-8{mix-blend-mode:overlay;}.cls-8{fill:#fff;}</style></defs><title>Icon Color</title><g class="cls-1"><g id="Layer_1" data-name="Layer 1"><g id="Vector"><path class="cls-2" d="M29.56,42,11.39,60.14a5.18,5.18,0,1,1-7.32-7.33L21.82,35.06l1.49.39.87.23h0A15.56,15.56,0,0,0,29,40.36l.2.65Z"/><path class="cls-3" d="M43.36,41.59a15.52,15.52,0,0,1-2.94.86,13.68,13.68,0,0,1-2.39.28l-3.55-.56-2.58-.41a15,15,0,0,1-1.48-.64l-.61-.31a15.81,15.81,0,0,1-5.62-5.12h0a16.85,16.85,0,0,1-1.09-1.89,13.93,13.93,0,0,1-.65-1.54l-.31-1.16-.4-1.46a15.87,15.87,0,0,1-.23-3.85c0-.49.09-1,.17-1.48A16,16,0,0,1,39.91,11.05l.38.07a16.34,16.34,0,0,1,3,.86,15.81,15.81,0,0,1,7.95,6.89,14.44,14.44,0,0,1,1.4,3.25,15.69,15.69,0,0,1,.52,7.18,16,16,0,0,1-.92,3.36,15.19,15.19,0,0,1-1.35,2.67A15.92,15.92,0,0,1,43.36,41.59Z"/><path class="cls-4" d="M32.33,50.53l-1.69-5.17L29.56,42l-.32-1-.2-.65v0l.58.34a13,13,0,0,0,1.45.72l2.56.54,3.51.75a12.85,12.85,0,0,0,2.4-.15l-3.57,4Z"/><path class="cls-4" d="M51.67,46.72l-5-2.13-5-2.13.85-.64A16,16,0,0,0,50.36,36L51,41.32Z"/><path class="cls-4" d="M61.45,28.69l-4.89,2.39-4.72,2.3a15.69,15.69,0,0,0,1.1-3.31,15.87,15.87,0,0,0-.13-7.2l4.13,2.78Z"/><path class="cls-4" d="M51.57,19.55A15.84,15.84,0,0,0,44,12.25l5-1.34,5.25-1.42-1.41,5.26Z"/><path class="cls-4" d="M41.06,11.24c-.12,0-.25-.06-.38-.09a15.79,15.79,0,0,0-9.53.91l-.86.06,2.37-4.89L35,2.34l3.05,4.5Z"/><path class="cls-4" d="M21.31,22.16l-2.13-5-2.14-5,5.39.66,5.41.64-1,1.28a15.79,15.79,0,0,0-4,5.32Z"/><path class="cls-4" d="M23.68,34.91l-.86-.28-1.47-.47-2.83-.91-5.18-1.66,4-3.65,4-3.65.13.59a16,16,0,0,0,0,3.85l.32,1.48.25,1.18A11.72,11.72,0,0,0,22.69,33,15.51,15.51,0,0,0,23.68,34.91Z"/></g><g id="Line"><path class="cls-5" d="M29.56,42,11.39,60.14a5.18,5.18,0,1,1-7.32-7.33L21.82,35.06l1.49.39.87.23h0A15.56,15.56,0,0,0,29,40.36l.2.65Z"/><path class="cls-5" d="M43.36,41.59a15.52,15.52,0,0,1-2.94.86,13.68,13.68,0,0,1-2.39.28l-3.55-.56-2.58-.41a15,15,0,0,1-1.48-.64l-.61-.31a15.81,15.81,0,0,1-5.62-5.12h0a16.85,16.85,0,0,1-1.09-1.89,13.93,13.93,0,0,1-.65-1.54l-.31-1.16-.4-1.46a15.87,15.87,0,0,1-.23-3.85c0-.49.09-1,.17-1.48A16,16,0,0,1,39.91,11.05l.38.07a16.34,16.34,0,0,1,3,.86,15.81,15.81,0,0,1,7.95,6.89,14.44,14.44,0,0,1,1.4,3.25,15.69,15.69,0,0,1,.52,7.18,16,16,0,0,1-.92,3.36,15.19,15.19,0,0,1-1.35,2.67A15.92,15.92,0,0,1,43.36,41.59Z"/><path class="cls-5" d="M32.33,50.53l-1.69-5.17L29.56,42l-.32-1-.2-.65v0l.58.34a13,13,0,0,0,1.45.72l2.56.54,3.51.75a12.85,12.85,0,0,0,2.4-.15l-3.57,4Z"/><path class="cls-5" d="M51.67,46.72l-5-2.13-5-2.13.85-.64A16,16,0,0,0,50.36,36L51,41.32Z"/><path class="cls-5" d="M61.45,28.69l-4.89,2.39-4.72,2.3a15.69,15.69,0,0,0,1.1-3.31,15.87,15.87,0,0,0-.13-7.2l4.13,2.78Z"/><path class="cls-5" d="M51.57,19.55A15.84,15.84,0,0,0,44,12.25l5-1.34,5.25-1.42-1.41,5.26Z"/><path class="cls-5" d="M41.06,11.24c-.12,0-.25-.06-.38-.09a15.79,15.79,0,0,0-9.53.91l-.86.06,2.37-4.89L35,2.34l3.05,4.5Z"/><path class="cls-5" d="M21.31,22.16l-2.13-5-2.14-5,5.39.66,5.41.64-1,1.28a15.79,15.79,0,0,0-4,5.32Z"/><path class="cls-5" d="M23.68,34.91l-.86-.28-1.47-.47-2.83-.91-5.18-1.66,4-3.65,4-3.65.13.59a16,16,0,0,0,0,3.85l.32,1.48.25,1.18A11.72,11.72,0,0,0,22.69,33,15.51,15.51,0,0,0,23.68,34.91Z"/></g><g id="Shadow" class="cls-6"><path d="M52.83,22.89c-.07-.26-.12-.52-.2-.77a13.76,13.76,0,0,0-1.06-2.57l1.28-4.8,1.41-5.26L49,10.91l-3.88,1-.2.77a15.88,15.88,0,0,1,2.86,2,15.32,15.32,0,0,0-2.87-2,21.86,21.86,0,0,1,1.95,8.72C47,33.52,36.5,41.23,35.06,42.26l7.48-.94.19,1.6,3.93,1.67,5,2.13L51,41.32l-.63-5.24c.18-.25.35-.49.51-.75a15.7,15.7,0,0,0,1-2l4.63-2.26,4.89-2.39-4.51-3Z"/><path d="M18.42,14.74l-.2.19,0,.07a15.57,15.57,0,0,1,3.28-2.29L17,12.16l.46,1.08,1.87.22Z"/><path d="M32,42.45c-.32.07-.63.11-.95.16l-.91,1,.55,1.74,1.69,5.17,3.63-4,1.86-2.06-4.62-2,.69-.52A13.81,13.81,0,0,1,32,42.45Z"/><path d="M33.18,11.44a14.15,14.15,0,0,1,1.63.54,15.68,15.68,0,0,1,4.52,2.73,16,16,0,0,0-3.79-2.46L40,11.06h-.06A16,16,0,0,0,33.18,11.44Z"/><path d="M28.66,42.68h.2l.05,0-2-.32Z"/><path d="M13.64,31.32v.07c0,.12.08.22.11.33l.08,0-.13-.49Z"/></g><g id="Highligth" class="cls-7"><g class="cls-7"><path class="cls-8" d="M9.07,52.81,25.29,36.59a5,5,0,0,1-1.41-1v0l-.56-.15-1.49-.39L4.07,52.81A5.17,5.17,0,0,0,10.23,61a5,5,0,0,1-1.16-.84A5.18,5.18,0,0,1,9.07,52.81Z"/><path class="cls-8" d="M19.18,17.17l2.13,5,1.57-2.1a15.61,15.61,0,0,1,1.47-2.5l3.49-4.1-5.53-.66L17,12.16Z"/><path class="cls-8" d="M26.67,24.3a16.52,16.52,0,0,1,.93-3.4,15.93,15.93,0,0,1,7.84-8.43,15.66,15.66,0,0,1,4.47-1.42h0l-.22,0a15.32,15.32,0,0,0-3.54,1l-.86.06.58-1.18a15.43,15.43,0,0,0-5.43,1.53c-.37.18-.73.37-1.08.58l-5,4.59A16.28,16.28,0,0,0,22.6,20.9a15.79,15.79,0,0,0-.93,3.4c-.08.49-.13,1-.17,1.48a15.1,15.1,0,0,0,.09,2.86A7.7,7.7,0,0,0,22,31.56,7.45,7.45,0,0,0,22.73,33l3,3.74c.35-5.29.61-9.26.73-11C26.52,25.54,26.56,25,26.67,24.3Z"/><path class="cls-8" d="M35.9,10.87l4.38-.16L38,6.64,35,2.34,32.66,7.23l-2.37,4.89.86-.06A15.71,15.71,0,0,1,35.9,10.87Z"/><path class="cls-8" d="M40.86,10.94l0-.07c-.32,0-.65.08-1,.13L40,11C40.3,11,40.58,11,40.86,10.94Z"/><path class="cls-8" d="M21.35,34.16l1.47.47.86.28a15.07,15.07,0,0,1-1-1.92l-.58-1.6-.57-2.71a15.57,15.57,0,0,1,0-3.8l-.13-.59-4,3.65-4,3.65,5.18,1.66Z"/></g></g></g></g></svg>