<svg xmlns="http://www.w3.org/2000/svg" viewBox="0 0 64 64"><defs><style>.cls-1{isolation:isolate;}.cls-2{fill:#d2dad8;}.cls-3{fill:#677575;}.cls-4{fill:none;stroke:#000;stroke-linecap:round;stroke-linejoin:round;stroke-width:2px;}.cls-5{opacity:0.25;mix-blend-mode:multiply;}.cls-6,.cls-7{mix-blend-mode:overlay;}.cls-7{fill:#fff;}</style></defs><title>Icon Color</title><g class="cls-1"><g id="Layer_1" data-name="Layer 1"><g id="Vector"><path class="cls-2" d="M54.88,26.5V49.93H36.79v-19h5.1a4.79,4.79,0,0,0,0-9.58H22.11a4.79,4.79,0,0,0,0,9.58h5.1v19H9.12V26.5a22.88,22.88,0,1,1,45.76,0Z"/><path class="cls-3" d="M27.3,60.39H9.12V49.93H27.21v9.56A4.58,4.58,0,0,0,27.3,60.39Z"/><path class="cls-3" d="M54.88,49.93V60.39H36.7a4.58,4.58,0,0,0,.09-.9V49.93Z"/></g><g id="Line"><path class="cls-4" d="M54.88,26.5V49.93H36.79v-19h5.1a4.79,4.79,0,0,0,0-9.58H22.11a4.79,4.79,0,0,0,0,9.58h5.1v19H9.12V26.5a22.88,22.88,0,1,1,45.76,0Z"/><path class="cls-4" d="M27.3,60.39H9.12V49.93H27.21v9.56A4.58,4.58,0,0,0,27.3,60.39Z"/><path class="cls-4" d="M54.88,49.93V60.39H36.7a4.58,4.58,0,0,0,.09-.9V49.93Z"/></g><g id="Shadow" class="cls-5"><path d="M32,3.61a23.51,23.51,0,0,0-4.23.4A22.89,22.89,0,0,1,46.31,24.34a4.78,4.78,0,0,1,.35,1.78,5,5,0,0,1-.24,1.45V60.39h8.46V26.5A22.89,22.89,0,0,0,32,3.61Z"/></g><g id="Highligth" class="cls-6"><g class="cls-6"><path class="cls-7" d="M14.12,26.5A22.89,22.89,0,0,1,34.5,3.75,22.85,22.85,0,0,0,9.12,26.5V60.39h5V26.5Z"/></g></g></g></g></svg>