<svg xmlns="http://www.w3.org/2000/svg" viewBox="0 0 64 64"><defs><style>.cls-1{isolation:isolate;}.cls-2{fill:#fdce12;}.cls-3{fill:#fab00b;}.cls-4{fill:#fa0f0c;}.cls-5{fill:none;stroke:#000;stroke-linecap:round;stroke-linejoin:round;stroke-width:2px;}.cls-6{opacity:0.25;mix-blend-mode:multiply;}.cls-7,.cls-8{mix-blend-mode:overlay;}.cls-8{fill:#fff;}</style></defs><title>Icon Color</title><g class="cls-1"><g id="Layer_1" data-name="Layer 1"><g id="Vector"><path class="cls-2" d="M58,19.6a1.34,1.34,0,0,1,1.86,1.54l-1.27,4.92L53.12,47.18H10.88L5.45,26.06,4.18,21.14A1.34,1.34,0,0,1,6,19.6l5.55,2.6,8.24,3.86,6.11-8.75,5-7.15a1.33,1.33,0,0,1,2.19,0l5,7.15,6.11,8.75,8.24-3.86Z"/><path class="cls-3" d="M23.14,21.21,12.23,15.87a1.33,1.33,0,0,0-1.87,1.53l.83,3.21.4,1.59,8.25,3.86Z"/><path class="cls-3" d="M40.87,21.2l10.9-5.33a1.33,1.33,0,0,1,1.88,1.53l-.83,3.21-.4,1.59-8.24,3.86Z"/><rect class="cls-2" x="7.78" y="47.18" width="48.44" height="7.23" rx="2.33"/><polygon class="cls-4" points="36.28 29.58 34.13 35.38 31.99 41.19 29.86 35.38 27.72 29.58 29.86 25.87 31.99 22.16 34.13 25.87 36.28 29.58"/></g><g id="Line"><path class="cls-5" d="M58,19.6a1.34,1.34,0,0,1,1.86,1.54l-1.27,4.92L53.12,47.18H10.88L5.45,26.06,4.18,21.14A1.34,1.34,0,0,1,6,19.6l5.55,2.6,8.24,3.86,6.11-8.75,5-7.15a1.33,1.33,0,0,1,2.19,0l5,7.15,6.11,8.75,8.24-3.86Z"/><path class="cls-5" d="M23.14,21.21,12.23,15.87a1.33,1.33,0,0,0-1.87,1.53l.83,3.21.4,1.59,8.25,3.86Z"/><path class="cls-5" d="M40.87,21.2l10.9-5.33a1.33,1.33,0,0,1,1.88,1.53l-.83,3.21-.4,1.59-8.24,3.86Z"/><rect class="cls-5" x="7.78" y="47.18" width="48.44" height="7.23" rx="2.33"/><polygon class="cls-5" points="36.28 29.58 34.13 35.38 31.99 41.19 29.86 35.38 27.72 29.58 29.86 25.87 31.99 22.16 34.13 25.87 36.28 29.58"/></g><g id="Shadow" class="cls-6"><path d="M44.36,20.61,44,22.19l5.54-2.59a1.33,1.33,0,0,1,1.86,1.54l-1.27,4.92L44.65,47.18h.78a2.34,2.34,0,0,1,2.33,2.33v2.57a2.33,2.33,0,0,1-2.33,2.33h8.46a2.33,2.33,0,0,0,2.33-2.33V49.51a2.33,2.33,0,0,0-2.33-2.33h-.77l5.43-21.12,1.27-4.92A1.34,1.34,0,0,0,58,19.6l-5.54,2.59.4-1.58.83-3.21a1.33,1.33,0,0,0-1.88-1.53l-7.08,3.46Z"/></g><g id="Highligth" class="cls-7"><g class="cls-7"><path class="cls-8" d="M28.14,21.21l-3,4.46,5.83-8.36,3.56-5.13-1.4-2a1.33,1.33,0,0,0-2.19,0l-5,7.15-1.47,2.1Z"/><polygon class="cls-8" points="21.07 24.29 21.06 24.3 24.83 26.06 24.83 26.06 21.07 24.29"/><path class="cls-8" d="M5.45,26.06l5.43,21.12h-.77a2.33,2.33,0,0,0-2.33,2.33v2.57a2.33,2.33,0,0,0,2.33,2.33h5a2.33,2.33,0,0,1-2.33-2.33V49.51a2.33,2.33,0,0,1,2.33-2.33h.77L10.45,26.06,9.18,21.14v-.07L6,19.6a1.34,1.34,0,0,0-1.86,1.54Z"/><path class="cls-8" d="M10.92,19.56l.12,0,5.55,2.6,4.46,2.09h0L16.59,22.2l-.4-1.59-.83-3.21h0l-3.13-1.53a1.33,1.33,0,0,0-1.87,1.53Z"/></g></g></g></g></svg>