<svg xmlns="http://www.w3.org/2000/svg" viewBox="0 0 64 64"><defs><style>.cls-1{isolation:isolate;}.cls-2{fill:#602b0b;}.cls-3{fill:#fab00b;}.cls-4{fill:#fdce12;}.cls-5{fill:none;stroke:#000;stroke-linecap:round;stroke-linejoin:round;stroke-width:2px;}.cls-6{opacity:0.25;mix-blend-mode:multiply;}.cls-7,.cls-8{mix-blend-mode:overlay;}.cls-8{fill:#fff;}</style></defs><title>Icon Color</title><g class="cls-1"><g id="Layer_1" data-name="Layer 1"><g id="Vector"><path class="cls-2" d="M54.11,34c0,12.3-9,22.27-20,22.27a18.16,18.16,0,0,1-5.38-.82,9.54,9.54,0,0,0,.94-4.16,9.87,9.87,0,0,0-9.86-9.88,9.48,9.48,0,0,0-4.25,1A24.33,24.33,0,0,1,14.05,34c0-9.39,5.23-17.43,12.63-20.7a9.23,9.23,0,0,0,5.09,1.51h4.61a9.35,9.35,0,0,0,5.09-1.5C48.87,16.57,54.11,24.61,54.11,34Z"/><path class="cls-2" d="M45.8,4.75v.64a9.39,9.39,0,0,1-4.33,7.92,9.35,9.35,0,0,1-5.09,1.5H31.77a9.23,9.23,0,0,1-5.09-1.51,9.38,9.38,0,0,1-4.33-7.91V4.75A2.8,2.8,0,0,0,24,5.26c2.5,0,2.5-2.41,5-2.41s2.52,2.41,5,2.41,2.51-2.41,5-2.41,2.51,2.41,5,2.41A2.8,2.8,0,0,0,45.8,4.75Z"/><path class="cls-3" d="M19.77,41.41a9.48,9.48,0,0,0-4.25,1A9.86,9.86,0,1,0,28.69,55.45a9.54,9.54,0,0,0,.94-4.16A9.87,9.87,0,0,0,19.77,41.41Zm0,15.12a5.23,5.23,0,0,1-2.25-10,5.16,5.16,0,0,1,2.25-.51A5.24,5.24,0,0,1,25,51.29a5.11,5.11,0,0,1-.52,2.27A5.2,5.2,0,0,1,19.77,56.53Z"/><path class="cls-4" d="M25,51.29a5.11,5.11,0,0,1-.52,2.27A5.24,5.24,0,1,1,25,51.29Z"/></g><g id="Line"><path class="cls-5" d="M54.11,34c0,12.3-9,22.27-20,22.27a18.16,18.16,0,0,1-5.38-.82,9.54,9.54,0,0,0,.94-4.16,9.87,9.87,0,0,0-9.86-9.88,9.48,9.48,0,0,0-4.25,1A24.33,24.33,0,0,1,14.05,34c0-9.39,5.23-17.43,12.63-20.7a9.23,9.23,0,0,0,5.09,1.51h4.61a9.35,9.35,0,0,0,5.09-1.5C48.87,16.57,54.11,24.61,54.11,34Z"/><path class="cls-5" d="M45.8,4.75v.64a9.39,9.39,0,0,1-4.33,7.92,9.35,9.35,0,0,1-5.09,1.5H31.77a9.23,9.23,0,0,1-5.09-1.51,9.38,9.38,0,0,1-4.33-7.91V4.75A2.8,2.8,0,0,0,24,5.26c2.5,0,2.5-2.41,5-2.41s2.52,2.41,5,2.41,2.51-2.41,5-2.41,2.51,2.41,5,2.41A2.8,2.8,0,0,0,45.8,4.75Z"/><path class="cls-5" d="M19.77,41.41a9.48,9.48,0,0,0-4.25,1A9.86,9.86,0,1,0,28.69,55.45a9.54,9.54,0,0,0,.94-4.16A9.87,9.87,0,0,0,19.77,41.41Zm0,15.12a5.23,5.23,0,0,1-2.25-10,5.16,5.16,0,0,1,2.25-.51A5.24,5.24,0,0,1,25,51.29a5.11,5.11,0,0,1-.52,2.27A5.2,5.2,0,0,1,19.77,56.53Z"/><path class="cls-5" d="M25,51.29a5.11,5.11,0,0,1-.52,2.27A5.24,5.24,0,1,1,25,51.29Z"/></g><g id="Shadow" class="cls-6"><path d="M41.47,13.31a8.56,8.56,0,0,1-1.15.63,8.56,8.56,0,0,0,1.15-.63A9.39,9.39,0,0,0,45.8,5.39V4.75a2.8,2.8,0,0,1-1.68.51c-2.52,0-2.52-2.41-5-2.41-2.22,0-2.48,1.87-4.23,2.31a3.1,3.1,0,0,0,.79.1,2.8,2.8,0,0,0,1.68-.51v.64A9.4,9.4,0,0,1,33,13.31a10.43,10.43,0,0,1-1.09.6h0a10.43,10.43,0,0,0,1.09-.6,18.83,18.83,0,0,1,2.75,1.5h.62a10.42,10.42,0,0,0,1.38-.1,10.42,10.42,0,0,1-1.38.1h-.62A22.81,22.81,0,0,1,45.65,34c0,10.68-6.78,19.6-15.8,21.76a17.86,17.86,0,0,0,4.22.51c11.06,0,20-10,20-22.27C54.11,24.61,48.87,16.57,41.47,13.31Z"/></g><g id="Highligth" class="cls-7"><g class="cls-7"><path class="cls-8" d="M19.77,61.15a10.16,10.16,0,0,0,2.48-.33,9.85,9.85,0,0,1-1.73-18.43A24.33,24.33,0,0,1,19.05,34,22.75,22.75,0,0,1,29.43,14.49c-.12,0-.24,0-.36-.08.12,0,.24.05.36.08a20.18,20.18,0,0,1,2.25-1.19,9.38,9.38,0,0,1-4.33-7.91V4.75A2.8,2.8,0,0,0,29,5.26,3.29,3.29,0,0,0,31.54,4,3.28,3.28,0,0,0,29,2.85c-2.51,0-2.51,2.41-5,2.41a2.8,2.8,0,0,1-1.68-.51v.64a9.38,9.38,0,0,0,4.33,7.91C19.28,16.57,14.05,24.61,14.05,34a24.33,24.33,0,0,0,1.47,8.39,9.86,9.86,0,0,0,4.25,18.76Z"/><path class="cls-8" d="M41.38,14.81a10.42,10.42,0,0,0,1.38-.1,10.42,10.42,0,0,1-1.38.1H36.77l-.2,0h0l.2,0Z"/><path class="cls-8" d="M36.57,14.79a9,9,0,0,1-2.5-.38,9,9,0,0,0,2.5.38Z"/></g></g></g></g></svg>