<svg xmlns="http://www.w3.org/2000/svg" viewBox="0 0 64 64"><defs><style>.cls-1{isolation:isolate;}.cls-2{fill:#602b0b;}.cls-3{fill:#ecd8bd;}.cls-4{fill:#677575;}.cls-5{fill:#d2dad8;}.cls-6{fill:none;stroke:#000;stroke-linecap:round;stroke-linejoin:round;stroke-width:2px;}.cls-7{opacity:0.25;mix-blend-mode:multiply;}.cls-8,.cls-9{mix-blend-mode:overlay;}.cls-9{fill:#fff;}</style></defs><title>Icon Color</title><g class="cls-1"><g id="Layer_1" data-name="Layer 1"><g id="Vector"><polygon class="cls-2" points="56.43 3.82 56.43 60.18 47.97 60.18 47.97 12.28 16.04 12.28 16.04 60.18 7.57 60.18 7.57 3.82 56.43 3.82"/><rect class="cls-2" x="16.04" y="40.51" width="31.92" height="19.67"/><circle class="cls-3" cx="32" cy="50.34" r="4.41"/><polygon class="cls-4" points="42.06 27.66 42.06 32.04 21.95 28.36 21.95 23.98 42.06 27.66"/><polygon class="cls-5" points="42.06 19.69 42.06 27.66 21.95 23.98 21.95 19.69 42.06 19.69"/></g><g id="Line"><polygon class="cls-6" points="56.43 3.82 56.43 60.18 47.97 60.18 47.97 12.28 16.04 12.28 16.04 60.18 7.57 60.18 7.57 3.82 56.43 3.82"/><rect class="cls-6" x="16.04" y="40.51" width="31.92" height="19.67"/><circle class="cls-6" cx="32" cy="50.34" r="4.41"/><line class="cls-6" x1="32.18" y1="12.29" x2="32.18" y2="20.05"/><polygon class="cls-6" points="42.06 27.66 42.06 32.04 21.95 28.36 21.95 23.98 42.06 27.66"/><polygon class="cls-6" points="42.06 19.69 42.06 27.66 21.95 23.98 21.95 19.69 42.06 19.69"/></g><g id="Shadow" class="cls-7"><polygon points="56.43 60.18 56.43 3.82 47.96 3.82 47.96 12.28 47.97 12.28 47.97 40.51 47.96 40.51 47.96 60.18 47.97 60.18 56.43 60.18"/><polygon points="35.76 27.66 35.76 30.49 41.67 31.57 41.67 19.69 35.76 19.69 35.76 27.66"/></g><g id="Highligth" class="cls-8"><g class="cls-8"><path class="cls-9" d="M39.85,30.72,27,28.36V19.69H22v8.67l17.92,3.28C39.86,31.33,39.85,31,39.85,30.72Z"/><rect class="cls-9" x="7.57" y="3.82" width="5" height="56.35"/></g></g></g></g></svg>