<svg xmlns="http://www.w3.org/2000/svg" viewBox="0 0 64 64"><defs><style>.cls-1{isolation:isolate;}.cls-2{fill:#13a3c7;}.cls-3{fill:#677575;}.cls-4{fill:#b5c4c2;}.cls-5{fill:none;stroke:#000;stroke-linecap:round;stroke-linejoin:round;stroke-width:2px;}.cls-6{opacity:0.25;mix-blend-mode:multiply;}.cls-7,.cls-8{mix-blend-mode:overlay;}.cls-8{fill:#fff;}</style></defs><title>Icon Color</title><g class="cls-1"><g id="Layer_1" data-name="Layer 1"><g id="Vector"><polygon class="cls-2" points="47.15 47.38 47.15 62.11 16.86 62.11 16.86 47.38 17.23 47.67 24.36 38.93 30.68 31.17 30 30.61 28.34 29.26 27 28.16 27.89 28.8 28.34 28.4 29.25 27.51 32.01 24.78 34.77 27.51 35.66 28.4 36.12 28.89 35.66 29.26 34.01 30.61 33.33 31.17 39.66 38.93 46.78 47.67 47.15 47.38"/><path class="cls-2" d="M25.35,28.16,16.87,38.54V28.14l.32,0Z"/><path class="cls-2" d="M25.58,21.69H17.19l-.32,0v-.88A13,13,0,0,1,19,13.66Z"/><path class="cls-2" d="M33.32,18.38l2.35,1.91-1.15,1.4L32,24.78l-2.51-3.09-1.14-1.4,2.34-1.91L23.46,9.54a12.84,12.84,0,0,1,6.35-1.66H34.2a12.87,12.87,0,0,1,6.35,1.66Z"/><path class="cls-2" d="M47.14,20.83v.88l-.32,0H38.43l6.55-8A12.89,12.89,0,0,1,47.14,20.83Z"/><path class="cls-2" d="M47.14,28.14V38.55L38.67,28.16h8.15Z"/><path class="cls-3" d="M32,24.78l-2.75,2.73-.9.89-.47.4L27,28.16l-1-.81-.65.81H17.19l-.32,0a3.23,3.23,0,0,1,0-6.43l.32,0h8.39l.42.51.63-.51,1.72-1.4,1.14,1.4Z"/><path class="cls-3" d="M37,28.16l1-.81.66.81h8.16l.32,0a3.15,3.15,0,0,0,2-.93,3.19,3.19,0,0,0,1-2.28,3.24,3.24,0,0,0-2.91-3.22l-.32,0h-8.4L38,22.2l-.62-.51-1.72-1.4-1.14,1.4L32,24.78"/><polygon class="cls-3" points="29.48 21.69 34.52 21.69 32.01 24.78 29.48 21.69"/><polygon class="cls-4" points="30.68 18.38 28.34 20.29 26.63 21.69 26 22.2 25.59 21.69 19.02 13.66 12.54 5.71 17.23 1.89 23.46 9.54 30.68 18.38"/><polygon class="cls-4" points="51.47 43.84 47.15 47.38 46.78 47.67 39.66 38.93 33.33 31.17 34.01 30.61 35.66 29.26 36.12 28.89 37.02 28.16 38.01 27.35 38.66 28.16 47.15 38.55 51.47 43.84"/><polygon class="cls-4" points="51.47 5.71 44.98 13.66 38.42 21.69 38.01 22.2 37.38 21.69 35.66 20.29 33.33 18.38 40.55 9.54 46.78 1.89 51.47 5.71"/><polygon class="cls-4" points="30.68 31.17 24.36 38.93 17.23 47.67 16.86 47.38 12.54 43.84 16.86 38.54 25.34 28.16 26 27.35 27 28.16 28.34 29.26 30 30.61 30.68 31.17"/></g><g id="Line"><polygon class="cls-5" points="47.15 47.38 47.15 62.11 16.86 62.11 16.86 47.38 17.23 47.67 24.36 38.93 30.68 31.17 30 30.61 28.34 29.26 27 28.16 27.89 28.8 28.34 28.4 29.25 27.51 32.01 24.78 34.77 27.51 35.66 28.4 36.12 28.89 35.66 29.26 34.01 30.61 33.33 31.17 39.66 38.93 46.78 47.67 47.15 47.38"/><path class="cls-5" d="M25.35,28.16,16.87,38.54V28.14l.32,0Z"/><path class="cls-5" d="M25.58,21.69H17.19l-.32,0v-.88A13,13,0,0,1,19,13.66Z"/><path class="cls-5" d="M33.32,18.38l2.35,1.91-1.15,1.4L32,24.78l-2.51-3.09-1.14-1.4,2.34-1.91L23.46,9.54a12.84,12.84,0,0,1,6.35-1.66H34.2a12.87,12.87,0,0,1,6.35,1.66Z"/><path class="cls-5" d="M47.14,20.83v.88l-.32,0H38.43l6.55-8A12.89,12.89,0,0,1,47.14,20.83Z"/><path class="cls-5" d="M47.14,28.14V38.55L38.67,28.16h8.15Z"/><path class="cls-5" d="M32,24.78l-2.75,2.73-.9.89-.47.4L27,28.16l-1-.81-.65.81H17.19l-.32,0a3.23,3.23,0,0,1,0-6.43l.32,0h8.39l.42.51.63-.51,1.72-1.4,1.14,1.4Z"/><path class="cls-5" d="M37,28.16l1-.81.66.81h8.16l.32,0a3.15,3.15,0,0,0,2-.93,3.19,3.19,0,0,0,1-2.28,3.24,3.24,0,0,0-2.91-3.22l-.32,0h-8.4L38,22.2l-.62-.51-1.72-1.4-1.14,1.4L32,24.78"/><polygon class="cls-5" points="29.48 21.69 34.52 21.69 32.01 24.78 29.48 21.69"/><polygon class="cls-5" points="30.68 18.38 28.34 20.29 26.63 21.69 26 22.2 25.59 21.69 19.02 13.66 12.54 5.71 17.23 1.89 23.46 9.54 30.68 18.38"/><polygon class="cls-5" points="51.47 43.84 47.15 47.38 46.78 47.67 39.66 38.93 33.33 31.17 34.01 30.61 35.66 29.26 36.12 28.89 37.02 28.16 38.01 27.35 38.66 28.16 47.15 38.55 51.47 43.84"/><polygon class="cls-5" points="51.47 5.71 44.98 13.66 38.42 21.69 38.01 22.2 37.38 21.69 35.66 20.29 33.33 18.38 40.55 9.54 46.78 1.89 51.47 5.71"/><polygon class="cls-5" points="30.68 31.17 24.36 38.93 17.23 47.67 16.86 47.38 12.54 43.84 16.86 38.54 25.34 28.16 26 27.35 27 28.16 28.34 29.26 30 30.61 30.68 31.17"/></g><g id="Shadow" class="cls-6"><path d="M40.06,9.31l-3.55,4.35a12.9,12.9,0,0,1,2.17,7.17v.88a3.24,3.24,0,0,1,2.91,3.22,3.19,3.19,0,0,1-1,2.28,3.15,3.15,0,0,1-2,.93v34h8.47V47.38l4.32-3.54-4.32-5.29V28.14a3.1,3.1,0,0,0,2-.93,3.19,3.19,0,0,0,.95-2.28,3.23,3.23,0,0,0-2.9-3.22v-.88A12.9,12.9,0,0,0,45,13.66l6.49-7.95L46.79,1.89,40.55,9.54C40.39,9.45,40.22,9.39,40.06,9.31Z"/></g><g id="Highligth" class="cls-7"><g class="cls-7"><path class="cls-8" d="M12.54,43.84l4.33,3.54V62.11h5V47.38l-4.33-3.54,4.33-5.3V28.14a3.24,3.24,0,0,1-2-5.5,3.18,3.18,0,0,1,2-.93v-.88A13,13,0,0,1,24,13.66L17.54,5.71l1.68-1.37-2-2.45L12.54,5.71l6.49,8a13,13,0,0,0-2.16,7.17v.88A3.22,3.22,0,0,0,14,24.93a3.22,3.22,0,0,0,2.91,3.21v10.4Z"/></g></g></g></g></svg>