<svg xmlns="http://www.w3.org/2000/svg" viewBox="0 0 64 64"><defs><style>.cls-1{isolation:isolate;}.cls-2{fill:#fdce12;}.cls-3{fill:#fab00b;}.cls-4,.cls-8{fill:#fff;}.cls-5{fill:none;stroke:#000;stroke-linecap:round;stroke-linejoin:round;stroke-width:2px;}.cls-6{opacity:0.25;mix-blend-mode:multiply;}.cls-7,.cls-8{mix-blend-mode:overlay;}</style></defs><title>Icon Color</title><g class="cls-1"><g id="Layer_1" data-name="Layer 1"><g id="Vector"><path class="cls-2" d="M40.63,16.31a3.34,3.34,0,0,0-1.88-.57H14.31A3.36,3.36,0,0,0,11,19.09v34a6.19,6.19,0,0,0,6.19,6.19H35.91a6.19,6.19,0,0,0,6.19-6.19v-34A3.34,3.34,0,0,0,40.63,16.31Zm-16.32,33a3,3,0,0,1-3,3h-.56a3,3,0,0,1-3-3V25.72a3,3,0,0,1,3-3h.56a3,3,0,0,1,3,3Zm11.06,0a3,3,0,0,1-3,3h-.55a3,3,0,0,1-3-3V25.72a3,3,0,0,1,3-3h.55a3,3,0,0,1,3,3Z"/><path class="cls-2" d="M53.05,36.46c0,7.39-4.52,13.37-10.11,13.37a5.83,5.83,0,0,1-.84,0V44c2.55-.84,4.43-3.89,4.43-7.51S44.65,29.8,42.1,29V23.13a5.83,5.83,0,0,1,.84-.05C48.53,23.08,53.05,29.08,53.05,36.46Z"/><path class="cls-3" d="M24.31,25.72V49.26a3,3,0,0,1-3,3h-.56a3,3,0,0,1-3-3V25.72a3,3,0,0,1,3-3h.56A3,3,0,0,1,24.31,25.72Z"/><path class="cls-3" d="M35.37,25.72V49.26a3,3,0,0,1-3,3h-.55a3,3,0,0,1-3-3V25.72a3,3,0,0,1,3-3h.55A3,3,0,0,1,35.37,25.72Z"/><path class="cls-4" d="M40.94,14.83a3.67,3.67,0,0,1-.31,1.48,3.34,3.34,0,0,0-1.88-.57H14.31a3.31,3.31,0,0,0-1.47.34,3.71,3.71,0,0,1,3.23-5.48A3.7,3.7,0,0,1,22.41,8a3.68,3.68,0,0,1,7.25-.39,3.69,3.69,0,0,1,6.81,2A3.62,3.62,0,0,1,36,11.35a3.87,3.87,0,0,1,1.23-.2A3.68,3.68,0,0,1,40.94,14.83Z"/></g><g id="Line"><path class="cls-5" d="M40.63,16.31a3.34,3.34,0,0,0-1.88-.57H14.31A3.36,3.36,0,0,0,11,19.09v34a6.19,6.19,0,0,0,6.19,6.19H35.91a6.19,6.19,0,0,0,6.19-6.19v-34A3.34,3.34,0,0,0,40.63,16.31Zm-16.32,33a3,3,0,0,1-3,3h-.56a3,3,0,0,1-3-3V25.72a3,3,0,0,1,3-3h.56a3,3,0,0,1,3,3Zm11.06,0a3,3,0,0,1-3,3h-.55a3,3,0,0,1-3-3V25.72a3,3,0,0,1,3-3h.55a3,3,0,0,1,3,3Z"/><path class="cls-5" d="M53.05,36.46c0,7.39-4.52,13.37-10.11,13.37a5.83,5.83,0,0,1-.84,0V44c2.55-.84,4.43-3.89,4.43-7.51S44.65,29.8,42.1,29V23.13a5.83,5.83,0,0,1,.84-.05C48.53,23.08,53.05,29.08,53.05,36.46Z"/><path class="cls-5" d="M24.31,25.72V49.26a3,3,0,0,1-3,3h-.56a3,3,0,0,1-3-3V25.72a3,3,0,0,1,3-3h.56A3,3,0,0,1,24.31,25.72Z"/><path class="cls-5" d="M35.37,25.72V49.26a3,3,0,0,1-3,3h-.55a3,3,0,0,1-3-3V25.72a3,3,0,0,1,3-3h.55A3,3,0,0,1,35.37,25.72Z"/><path class="cls-5" d="M40.94,14.83a3.67,3.67,0,0,1-.31,1.48,3.34,3.34,0,0,0-1.88-.57H14.31a3.31,3.31,0,0,0-1.47.34,3.71,3.71,0,0,1,3.23-5.48A3.7,3.7,0,0,1,22.41,8a3.68,3.68,0,0,1,7.25-.39,3.69,3.69,0,0,1,6.81,2A3.62,3.62,0,0,1,36,11.35a3.87,3.87,0,0,1,1.23-.2A3.68,3.68,0,0,1,40.94,14.83Z"/></g><g id="Shadow" class="cls-6"><path d="M42.94,23.08a5.83,5.83,0,0,0-.84.05v-4a3.34,3.34,0,0,0-1.47-2.78,3.69,3.69,0,0,0-3.37-5.17,3.61,3.61,0,0,0-1.23.21,3.69,3.69,0,0,0-6.37-3.72,3.68,3.68,0,0,0-3.59-2.87,3.64,3.64,0,0,0-2.82,1.32,3.43,3.43,0,0,1,1.07-.17,3.71,3.71,0,0,1,3.25,5.44,3.53,3.53,0,0,1,1.23-.21,3.69,3.69,0,0,1,3.68,3.69,3.84,3.84,0,0,1-.31,1.48,3.33,3.33,0,0,1,1.46,2.78v4c.27,0,.27,26.69,0,26.65v3.27a6.19,6.19,0,0,1-6.19,6.19h8.47a6.19,6.19,0,0,0,6.19-6.19V49.78a5.83,5.83,0,0,0,.84,0c5.59,0,10.11-6,10.11-13.37S48.53,23.08,42.94,23.08ZM45.85,40.3l-.41.5-.15.23c-.39.69-.74,1.42-1.19,2.06a1,1,0,0,1-1.13.45C41.22,43,41.68,40.37,41.76,39s-.11-2.63,0-3.94c.14-1.52,0-3,0-4.52a1,1,0,0,1,1.36-.9,2.31,2.31,0,0,1,2.07.65,2.88,2.88,0,0,1,1,2.14c.17,1.9.64,3.85.3,5.75a1,1,0,0,1,.26.64A1.71,1.71,0,0,1,45.85,40.3Z"/><path d="M21.19,7.64c.07-.11.15-.21.23-.32L21,7.16A3.37,3.37,0,0,1,21.19,7.64Z"/></g><g id="Highligth" class="cls-7"><g class="cls-7"><path class="cls-8" d="M28.56,5.75a3.66,3.66,0,0,0-6.1,2A3.68,3.68,0,0,1,27.41,8,3.59,3.59,0,0,1,28.56,5.75Z"/><path class="cls-8" d="M35.27,6.91a3.44,3.44,0,0,0-1.37-.8,3.68,3.68,0,0,1,.76,1.53A3.59,3.59,0,0,1,35.27,6.91Z"/><path class="cls-8" d="M11,19.09v34a6.19,6.19,0,0,0,6.19,6.19h5A6.19,6.19,0,0,1,16,53.05v-34a3.34,3.34,0,0,1,1.89-3,3.71,3.71,0,0,1,3.23-5.48,3.63,3.63,0,0,1,1.19-2.69,3.68,3.68,0,0,0-6.19,2.69,3.71,3.71,0,0,0-3.23,5.48A3.34,3.34,0,0,0,11,19.09Z"/></g></g></g></g></svg>