<svg xmlns="http://www.w3.org/2000/svg" viewBox="0 0 64 64"><defs><style>.cls-1{isolation:isolate;}.cls-2{fill:#13a3c7;}.cls-3{fill:#d2dad8;}.cls-4{fill:#fdce12;}.cls-5{fill:#fab00b;}.cls-6{fill:#fa0f0c;}.cls-7{fill:none;stroke:#000;stroke-linecap:round;stroke-linejoin:round;stroke-width:2px;}.cls-8{opacity:0.25;mix-blend-mode:multiply;}.cls-10,.cls-9{mix-blend-mode:overlay;}.cls-10{fill:#fff;}</style></defs><title>Icon Color</title><g class="cls-1"><g id="Layer_1" data-name="Layer 1"><g id="Vector"><path class="cls-2" d="M56.22,4.93a4,4,0,0,0-4.34.83,11.58,11.58,0,0,1-7.54,3.29A12.25,12.25,0,0,1,35.24,5a4,4,0,0,0-3-1.38h-.44A4,4,0,0,0,28.8,5a12.07,12.07,0,0,1-8.51,3.91A12,12,0,0,1,12.05,5.7,4,4,0,0,0,7.73,5a4,4,0,0,0-2.4,3.67v7.71C5.33,41,17,60.39,32,60.39S58.67,41,58.67,16.34V8.63A4,4,0,0,0,56.22,4.93ZM54.67,16.34c0,22.12-10.15,40.05-22.66,40.05S9.33,38.46,9.33,16.34V8.63a16,16,0,0,0,11,4.23,16.19,16.19,0,0,0,11.4-5.25h.44a16.11,16.11,0,0,0,12.27,5.44A15.72,15.72,0,0,0,54.67,8.63Z"/><path class="cls-3" d="M54.67,8.63v7.71c0,22.12-10.15,40.05-22.66,40.05S9.33,38.46,9.33,16.34V8.63a16,16,0,0,0,11,4.23,16.19,16.19,0,0,0,11.4-5.25h.44a16.11,16.11,0,0,0,12.27,5.44A15.72,15.72,0,0,0,54.67,8.63Z"/><path class="cls-4" d="M44.72,22.92a.66.66,0,0,1,.91.76L45,26.09,42.35,36.44H21.65L19,26.09l-.62-2.41a.66.66,0,0,1,.91-.76L22,24.2l4,1.89,3-4.29,2.44-3.5a.64.64,0,0,1,1.07,0L35,21.8l3,4.29,4-1.89Z"/><path class="cls-5" d="M27.66,23.71,22.31,21.1a.65.65,0,0,0-.92.75l.41,1.57.2.78,4,1.89Z"/><path class="cls-5" d="M36.34,23.71l5.35-2.62a.65.65,0,0,1,.92.75l-.41,1.58-.2.78-4,1.89Z"/><rect class="cls-4" x="20.13" y="36.44" width="23.74" height="3.54" rx="0.86"/><polygon class="cls-6" points="34.09 27.82 33.05 30.66 32 33.5 30.95 30.66 29.91 27.82 30.95 26 32 24.18 33.05 26 34.09 27.82"/></g><g id="Line"><path class="cls-7" d="M56.22,4.93a4,4,0,0,0-4.34.83,11.58,11.58,0,0,1-7.54,3.29A12.25,12.25,0,0,1,35.24,5a4,4,0,0,0-3-1.38h-.44A4,4,0,0,0,28.8,5a12.07,12.07,0,0,1-8.51,3.91A12,12,0,0,1,12.05,5.7,4,4,0,0,0,7.73,5a4,4,0,0,0-2.4,3.67v7.71C5.33,41,17,60.39,32,60.39S58.67,41,58.67,16.34V8.63A4,4,0,0,0,56.22,4.93ZM54.67,16.34c0,22.12-10.15,40.05-22.66,40.05S9.33,38.46,9.33,16.34V8.63a16,16,0,0,0,11,4.23,16.19,16.19,0,0,0,11.4-5.25h.44a16.11,16.11,0,0,0,12.27,5.44A15.72,15.72,0,0,0,54.67,8.63Z"/><path class="cls-7" d="M54.67,8.63v7.71c0,22.12-10.15,40.05-22.66,40.05S9.33,38.46,9.33,16.34V8.63a16,16,0,0,0,11,4.23,16.19,16.19,0,0,0,11.4-5.25h.44a16.11,16.11,0,0,0,12.27,5.44A15.72,15.72,0,0,0,54.67,8.63Z"/><path class="cls-7" d="M44.72,22.92a.66.66,0,0,1,.91.76L45,26.09,42.35,36.44H21.65L19,26.09l-.62-2.41a.66.66,0,0,1,.91-.76L22,24.2l4,1.89,3-4.29,2.44-3.5a.64.64,0,0,1,1.07,0L35,21.8l3,4.29,4-1.89Z"/><path class="cls-7" d="M27.66,23.71,22.31,21.1a.65.65,0,0,0-.92.75l.41,1.57.2.78,4,1.89Z"/><path class="cls-7" d="M36.34,23.71l5.35-2.62a.65.65,0,0,1,.92.75l-.41,1.58-.2.78-4,1.89Z"/><rect class="cls-7" x="20.13" y="36.44" width="23.74" height="3.54" rx="0.86"/><polygon class="cls-7" points="34.09 27.82 33.05 30.66 32 33.5 30.95 30.66 29.91 27.82 30.95 26 32 24.18 33.05 26 34.09 27.82"/></g><g id="Shadow" class="cls-8"><path d="M56.22,4.93a4,4,0,0,0-4.35.83A11.6,11.6,0,0,1,50,7.26a3.9,3.9,0,0,1,.25,1.36v7.72c0,22.31-9.57,40.25-22.44,43.51a17.15,17.15,0,0,0,4.23.54c15,0,26.67-19.35,26.67-44V8.62A4,4,0,0,0,56.22,4.93Z"/></g><g id="Highligth" class="cls-9"><g class="cls-9"><path class="cls-10" d="M33.8,5a4,4,0,0,1,.7-.61,4,4,0,0,0-2.28-.73h-.44A4,4,0,0,0,28.8,5a12.4,12.4,0,0,1-6.24,3.63,10.75,10.75,0,0,0,2.73.28A12.09,12.09,0,0,0,33.8,5Z"/><path class="cls-10" d="M10.33,16.34V8.62a4,4,0,0,1,1.5-3.11,4,4,0,0,0-6.5,3.11v7.72C5.33,41,17,60.39,32,60.39a17.21,17.21,0,0,0,2.5-.2C20.76,58.17,10.33,39.64,10.33,16.34Z"/></g></g></g></g></svg>