<svg xmlns="http://www.w3.org/2000/svg" viewBox="0 0 64 64"><defs><style>.cls-1{isolation:isolate;}.cls-2{fill:#602b0b;}.cls-3{fill:#ecd8bd;}.cls-4{fill:none;stroke:#000;stroke-linecap:round;stroke-linejoin:round;stroke-width:2px;}.cls-5{opacity:0.25;mix-blend-mode:multiply;}.cls-6,.cls-7{mix-blend-mode:overlay;}.cls-7{fill:#fff;}</style></defs><title>Icon Color</title><g class="cls-1"><g id="Layer_1" data-name="Layer 1"><g id="Vector"><path class="cls-2" d="M60,9.76A4.27,4.27,0,0,1,58.39,13a5.8,5.8,0,0,1-3.8,1.37H9.41C6.46,14.4,4,12.31,4,9.76A4.29,4.29,0,0,1,5.61,6.49a5.83,5.83,0,0,1,3.8-1.36H54.59C57.56,5.13,60,7.21,60,9.76Z"/><path class="cls-2" d="M60,54.24a4.3,4.3,0,0,1-1.57,3.27,5.85,5.85,0,0,1-3.8,1.36H9.41C6.46,58.87,4,56.78,4,54.24A4.25,4.25,0,0,1,5.61,51a5.79,5.79,0,0,1,3.8-1.37H54.59C57.56,49.6,60,51.68,60,54.24Z"/><rect class="cls-3" x="12" y="14.4" width="40" height="35.21"/></g><g id="Line"><path class="cls-4" d="M60,9.76A4.27,4.27,0,0,1,58.39,13a5.8,5.8,0,0,1-3.8,1.37H9.41C6.46,14.4,4,12.31,4,9.76A4.29,4.29,0,0,1,5.61,6.49a5.83,5.83,0,0,1,3.8-1.36H54.59C57.56,5.13,60,7.21,60,9.76Z"/><path class="cls-4" d="M60,54.24a4.3,4.3,0,0,1-1.57,3.27,5.85,5.85,0,0,1-3.8,1.36H9.41C6.46,58.87,4,56.78,4,54.24A4.25,4.25,0,0,1,5.61,51a5.79,5.79,0,0,1,3.8-1.37H54.59C57.56,49.6,60,51.68,60,54.24Z"/><rect class="cls-4" x="12" y="14.4" width="40" height="35.21"/><line class="cls-4" x1="20.78" y1="20.94" x2="43.2" y2="20.94"/><line class="cls-4" x1="20.78" y1="28.06" x2="43.2" y2="28.06"/><line class="cls-4" x1="20.78" y1="35.18" x2="43.2" y2="35.18"/><line class="cls-4" x1="20.78" y1="42.3" x2="43.2" y2="42.3"/></g><g id="Shadow" class="cls-5"><path d="M54.59,14.4A5.8,5.8,0,0,0,58.39,13,4.27,4.27,0,0,0,60,9.76c0-2.55-2.4-4.63-5.37-4.63H46.13c3,0,5.37,2.08,5.37,4.63A4.28,4.28,0,0,1,49.92,13a5.79,5.79,0,0,1-3.79,1.37h-2.6V49.6h2.6c3,0,5.37,2.08,5.37,4.64a4.31,4.31,0,0,1-1.58,3.27,5.84,5.84,0,0,1-3.79,1.36h8.46a5.85,5.85,0,0,0,3.8-1.36A4.3,4.3,0,0,0,60,54.24c0-2.56-2.4-4.64-5.37-4.64H52V14.4Z"/></g><g id="Highligth" class="cls-6"><g class="cls-6"><path class="cls-7" d="M9.41,49.6A5.79,5.79,0,0,0,5.61,51,4.25,4.25,0,0,0,4,54.24c0,2.54,2.42,4.63,5.37,4.63h5C11.46,58.87,9,56.78,9,54.24A4.25,4.25,0,0,1,10.61,51a5.79,5.79,0,0,1,3.8-1.37H17V14.4H14.41C11.46,14.4,9,12.31,9,9.76a4.29,4.29,0,0,1,1.57-3.27,5.83,5.83,0,0,1,3.8-1.36h-5a5.83,5.83,0,0,0-3.8,1.36A4.29,4.29,0,0,0,4,9.76c0,2.55,2.42,4.64,5.37,4.64H12V49.6Z"/></g></g></g></g></svg>