<svg xmlns="http://www.w3.org/2000/svg" viewBox="0 0 64 64"><defs><style>.cls-1{isolation:isolate;}.cls-2{fill:#b5c4c2;}.cls-3{fill:#677575;}.cls-4{fill:none;stroke:#000;stroke-linecap:round;stroke-linejoin:round;stroke-width:2px;}.cls-5{opacity:0.25;mix-blend-mode:multiply;}.cls-6,.cls-7{mix-blend-mode:overlay;}.cls-7{fill:#fff;}</style></defs><title>Icon Color</title><g class="cls-1"><g id="Layer_1" data-name="Layer 1"><g id="Vector"><rect class="cls-2" x="14.95" y="33.98" width="34.1" height="26.92"/><polygon class="cls-2" points="49.05 3.1 49.05 28.11 14.95 28.11 14.95 3.1 21.31 3.1 21.31 9.62 28.82 9.62 28.82 3.1 35.19 3.1 35.19 9.62 42.69 9.62 42.69 3.1 49.05 3.1"/><rect class="cls-3" x="12.48" y="28.12" width="39.04" height="5.87" rx="2.79"/><path class="cls-3" d="M29.78,41.5h4.44a5.63,5.63,0,0,1,5.63,5.63V60.9a0,0,0,0,1,0,0H24.16a0,0,0,0,1,0,0V47.13A5.63,5.63,0,0,1,29.78,41.5Z"/></g><g id="Line"><rect class="cls-4" x="14.95" y="33.98" width="34.1" height="26.92"/><polygon class="cls-4" points="49.05 3.1 49.05 28.11 14.95 28.11 14.95 3.1 21.31 3.1 21.31 9.62 28.82 9.62 28.82 3.1 35.19 3.1 35.19 9.62 42.69 9.62 42.69 3.1 49.05 3.1"/><rect class="cls-4" x="12.48" y="28.12" width="39.04" height="5.87" rx="2.79"/><path class="cls-4" d="M29.78,41.5h4.44a5.63,5.63,0,0,1,5.63,5.63V60.9a0,0,0,0,1,0,0H24.16a0,0,0,0,1,0,0V47.13A5.63,5.63,0,0,1,29.78,41.5Z"/><line class="cls-4" x1="14.95" y1="13.36" x2="24.16" y2="13.36"/><line class="cls-4" x1="14.95" y1="18.94" x2="19.98" y2="18.94"/><line class="cls-4" x1="35.15" y1="17.79" x2="29.06" y2="17.79"/><line class="cls-4" x1="49.05" y1="14.71" x2="42.29" y2="14.71"/><line class="cls-4" x1="49.05" y1="24.26" x2="39.84" y2="24.26"/><line class="cls-4" x1="25.79" y1="24.26" x2="18.57" y2="24.26"/><line class="cls-4" x1="14.95" y1="39.39" x2="20.94" y2="39.39"/><line class="cls-4" x1="49.05" y1="40.97" x2="42.29" y2="40.97"/><line class="cls-4" x1="15.53" y1="50.21" x2="19.98" y2="50.21"/><line class="cls-4" x1="14.95" y1="57.53" x2="17.95" y2="57.53"/><line class="cls-4" x1="49.05" y1="49.08" x2="44.45" y2="49.08"/><line class="cls-4" x1="49.05" y1="57.53" x2="44.83" y2="57.53"/></g><g id="Shadow" class="cls-5"><path d="M40.27,28.12a2.78,2.78,0,0,1,2.79,2.78v.29A2.79,2.79,0,0,1,40.27,34h.31V60.9h8.47V34h-.32a2.79,2.79,0,0,0,2.79-2.79V30.9a2.78,2.78,0,0,0-2.79-2.78Z"/><polygon points="40.59 28.11 49.05 28.11 49.05 3.1 42.69 3.1 42.69 9.62 40.59 9.62 40.59 28.11"/><rect x="32.5" y="3.1" width="1.72" height="6.52"/></g><g id="Highligth" class="cls-6"><g class="cls-6"><rect class="cls-7" x="14.95" y="3.1" width="5" height="25.01"/><rect class="cls-7" x="28.82" y="3.1" width="5" height="6.52"/><path class="cls-7" d="M15.27,34H15V60.9h5V34h.32a2.79,2.79,0,0,1-2.79-2.79V30.9a2.78,2.78,0,0,1,2.79-2.78h-5a2.78,2.78,0,0,0-2.79,2.78v.29A2.79,2.79,0,0,0,15.27,34Z"/></g></g></g></g></svg>