<?xml version="1.0" encoding="UTF-8"?>
<svg width="700pt" height="700pt" version="1.1" viewBox="0 0 700 700" xmlns="http://www.w3.org/2000/svg" xmlns:xlink="http://www.w3.org/1999/xlink">
 <defs>
  

 </defs>
 <g>
  <path d="m577.66 28h-449.71c-13.445 0-24.34 10.898-24.34 24.344v449.72c0 13.441 10.895 24.336 24.34 24.336h449.72c13.441 0 24.344-10.898 24.344-24.344v-449.71c-0.003906-13.445-10.902-24.344-24.348-24.344zm0.25781 16.801c4.0273 0 7.2852 3.2578 7.2852 7.2852v53.391c-5.875-11.109-13.418-21.422-22.566-30.559-12.523-12.508-26.801-22.602-42.27-30.117zm-224.45 422.27-0.18359 0.18359-0.18359-0.18359c-26.344 26.32-61.371 40.82-98.621 40.82s-72.277-14.5-98.621-40.82c-20.758-20.738-32.188-48.305-32.188-77.629 0-29.328 11.43-56.902 32.188-77.637 33.621-33.594 88.316-33.602 121.95 0 12.711 12.695 19.711 29.586 19.711 47.539 0 17.961-7 34.848-19.719 47.551-9.8516 9.8438-22.953 15.27-36.883 15.27-13.926 0-27.027-5.4258-36.875-15.27-15.605-15.598-15.605-40.969 0-56.578 11.832-11.82 31.086-11.816 42.918-0.003906 8.8047 8.8047 8.8047 23.129 0 31.926-6.3906 6.3906-16.789 6.3906-23.191 0.003906-2.1562-2.1602-3.3438-5.0234-3.3438-8.0742s1.1875-5.918 3.3477-8.0703l-11.918-11.898c-5.3359 5.332-8.2812 12.434-8.2812 19.969 0 7.5547 2.9414 14.637 8.2812 19.977 12.957 12.945 34.055 12.941 47.02-0.003907 15.367-15.359 15.359-40.359-0.003906-55.73-18.402-18.363-48.344-18.367-66.746 0.003907-22.176 22.172-22.176 58.219 0 80.383 13.031 13.02 30.359 20.195 48.793 20.195 18.434 0 35.766-7.1719 48.797-20.195 15.895-15.883 24.652-36.988 24.652-59.449 0-22.449-8.7578-43.562-24.652-59.438-10.336-10.328-22.344-17.941-35.152-22.961 12.809-5.0195 24.824-12.641 35.156-22.961 32.801-32.781 32.801-86.117 0-118.89-13.031-13.02-30.363-20.195-48.797-20.195s-35.766 7.1719-48.793 20.195c-22.176 22.152-22.18 58.207 0 80.383 18.406 18.363 48.352 18.367 66.746-0.003906 15.371-15.359 15.371-40.359 0.003906-55.73-12.957-12.945-34.047-12.945-47.012 0.003906-11.027 11.016-11.027 28.934 0 39.949l11.91-11.906c-4.4531-4.4531-4.4531-11.699 0-16.152 6.4023-6.3789 16.789-6.3789 23.184 0 8.8047 8.8047 8.7969 23.129-0.003907 31.93-11.82 11.809-31.078 11.816-42.918 0-15.605-15.602-15.605-40.977 0-56.578 9.8516-9.8438 22.949-15.27 36.883-15.27s27.031 5.4258 36.883 15.27c26.242 26.219 26.242 68.875 0 95.09-33.621 33.582-88.316 33.582-121.95 0-20.758-20.738-32.188-48.316-32.188-77.637s11.43-56.891 32.195-77.633c26.336-26.312 61.363-40.812 98.617-40.812 37.262 0 72.285 14.5 98.621 40.812l0.19141-0.18359 0.18359 0.18359c26.336-26.312 61.363-40.812 98.617-40.812 37.258 0 72.277 14.5 98.629 40.812 42.844 42.812 42.844 112.46 0 155.28-33.633 33.594-88.34 33.582-121.95 0-12.719-12.699-19.719-29.59-19.719-47.543 0-17.961 7-34.844 19.719-47.543 9.8555-9.8438 22.953-15.27 36.883-15.27 13.934 0 27.031 5.4258 36.883 15.27 15.602 15.598 15.602 40.969 0 56.57-11.832 11.816-31.098 11.82-42.918 0.003907-8.8047-8.8047-8.8047-23.129-0.003906-31.926 6.3906-6.3789 16.793-6.3711 23.184-0.003906 4.457 4.4531 4.457 11.699 0 16.152l11.922 11.906c11.016-11.016 11.016-28.934-0.003906-39.957-12.953-12.938-34.035-12.945-47.02 0.003907-15.359 15.359-15.359 40.363 0.003906 55.73 18.406 18.363 48.344 18.355 66.754-0.003907 22.172-22.172 22.172-58.219 0-80.375-13.031-13.02-30.363-20.195-48.797-20.195-18.43 0-35.762 7.1719-48.793 20.188-15.898 15.883-24.652 36.988-24.652 59.449 0 22.457 8.7539 43.566 24.652 59.445 10.332 10.328 22.34 17.941 35.145 22.961-12.809 5.0195-24.824 12.633-35.152 22.961-32.805 32.777-32.805 86.109 0 118.89 13.031 13.02 30.363 20.195 48.793 20.195 18.434 0 35.766-7.1719 48.797-20.195 22.176-22.16 22.176-58.211 0-80.383-18.406-18.363-48.352-18.367-66.746 0.003907-15.379 15.359-15.379 40.363-0.003906 55.727 6.2734 6.2734 14.621 9.7266 23.504 9.7266 8.8828 0 17.23-3.457 23.496-9.7227 5.3438-5.3359 8.2812-12.426 8.2812-19.977 0-7.543-2.9414-14.637-8.2812-19.969l-11.91 11.898c2.1602 2.1562 3.3477 5.0195 3.3477 8.0703 0 3.0508-1.1875 5.918-3.3555 8.0742-6.1836 6.1719-16.984 6.1719-23.18 0-8.8047-8.8047-8.7969-23.129 0.003906-31.93 11.832-11.809 31.098-11.809 42.918 0 15.613 15.605 15.613 40.98 0.003906 56.582-9.8555 9.8438-22.953 15.27-36.887 15.27-13.926 0-27.027-5.4258-36.883-15.27-26.234-26.219-26.234-68.879 0-95.09 33.633-33.59 88.328-33.59 121.95 0 20.758 20.738 32.195 48.316 32.195 77.637 0 29.32-11.434 56.891-32.195 77.629-26.344 26.32-61.363 40.82-98.621 40.82-37.258-0.003906-72.277-14.512-98.617-40.832zm31.535 42.527h-63.441c11.258-5.3555 21.926-12.008 31.723-20.02 9.8008 8.0117 20.461 14.664 31.719 20.02zm-264.6-177.1v-111.11c6.0039 11.883 13.844 22.914 23.535 32.598 10.336 10.32 22.348 17.938 35.156 22.953-12.812 5.0195-24.824 12.641-35.156 22.965-9.6914 9.6914-17.523 20.715-23.535 32.598zm202.16-287.7h61.465c-10.879 5.2695-21.223 11.742-30.734 19.516-9.5117-7.7734-19.852-14.246-30.73-19.516zm240.07 255.11c-10.336-10.328-22.348-17.941-35.156-22.961 12.812-5.0195 24.832-12.641 35.164-22.961 9.1523-9.1406 16.695-19.449 22.566-30.559v107.04c-5.875-11.113-13.422-21.418-22.574-30.559zm-434.94-255.11h58.512c-15.469 7.5156-29.746 17.613-42.262 30.117-9.6953 9.6836-17.535 20.715-23.535 32.598l-0.003906-55.43c0-4.0273 3.2617-7.2852 7.2891-7.2852zm0 464.8c-4.0273 0-7.2891-3.2617-7.2891-7.2891v-55.934c6.0039 11.883 13.836 22.91 23.531 32.594 12.789 12.777 27.418 23.062 43.27 30.625zm450.23 0h-58.555c15.855-7.5664 30.477-17.848 43.266-30.625 9.1523-9.1406 16.699-19.449 22.574-30.566v53.906c0 4.0234-3.2578 7.2852-7.2852 7.2852z"/>
 </g>
</svg>
