<?xml version="1.0" encoding="UTF-8"?>
<svg width="700pt" height="700pt" version="1.1" viewBox="0 0 700 700" xmlns="http://www.w3.org/2000/svg" xmlns:xlink="http://www.w3.org/1999/xlink">
 <defs>
  <symbol id="u" overflow="visible">
   <path d="m18.766-1.125c-0.96875 0.5-1.9805 0.875-3.0312 1.125-1.043 0.25781-2.1367 0.39062-3.2812 0.39062-3.3984 0-6.0898-0.94531-8.0781-2.8438-1.9922-1.9062-2.9844-4.4844-2.9844-7.7344 0-3.2578 0.99219-5.8359 2.9844-7.7344 1.9883-1.9062 4.6797-2.8594 8.0781-2.8594 1.1445 0 2.2383 0.13281 3.2812 0.39062 1.0508 0.25 2.0625 0.625 3.0312 1.125v4.2188c-0.98047-0.65625-1.9453-1.1406-2.8906-1.4531-0.94922-0.3125-1.9492-0.46875-3-0.46875-1.875 0-3.3516 0.60547-4.4219 1.8125-1.0742 1.1992-1.6094 2.8555-1.6094 4.9688 0 2.1055 0.53516 3.7617 1.6094 4.9688 1.0703 1.1992 2.5469 1.7969 4.4219 1.7969 1.0508 0 2.0508-0.14844 3-0.45312 0.94531-0.3125 1.9102-0.80078 2.8906-1.4688z"/>
  </symbol>
  <symbol id="e" overflow="visible">
   <path d="m13.734-11.141c-0.4375-0.19531-0.87109-0.34375-1.2969-0.4375-0.41797-0.10156-0.83984-0.15625-1.2656-0.15625-1.2617 0-2.2305 0.40625-2.9062 1.2188-0.67969 0.80469-1.0156 1.9531-1.0156 3.4531v7.0625h-4.8906v-15.312h4.8906v2.5156c0.625-1 1.3438-1.7266 2.1562-2.1875 0.82031-0.46875 1.8008-0.70312 2.9375-0.70312 0.16406 0 0.34375 0.011719 0.53125 0.03125 0.19531 0.011719 0.47656 0.039062 0.84375 0.078125z"/>
  </symbol>
  <symbol id="a" overflow="visible">
   <path d="m17.641-7.7031v1.4062h-11.453c0.125 1.1484 0.53906 2.0078 1.25 2.5781 0.70703 0.57422 1.7031 0.85938 2.9844 0.85938 1.0312 0 2.082-0.14844 3.1562-0.45312 1.082-0.3125 2.1914-0.77344 3.3281-1.3906v3.7656c-1.1562 0.4375-2.3125 0.76562-3.4688 0.98438-1.1562 0.22656-2.3125 0.34375-3.4688 0.34375-2.7734 0-4.9297-0.70312-6.4688-2.1094-1.5312-1.4062-2.2969-3.3789-2.2969-5.9219 0-2.5 0.75391-4.4609 2.2656-5.8906 1.5078-1.4375 3.582-2.1562 6.2188-2.1562 2.4062 0 4.332 0.73047 5.7812 2.1875 1.4453 1.4492 2.1719 3.3828 2.1719 5.7969zm-5.0312-1.625c0-0.92578-0.27344-1.6719-0.8125-2.2344-0.54297-0.57031-1.25-0.85938-2.125-0.85938-0.94922 0-1.7188 0.26562-2.3125 0.79688s-0.96484 1.2969-1.1094 2.2969z"/>
  </symbol>
  <symbol id="d" overflow="visible">
   <path d="m9.2188-6.8906c-1.0234 0-1.793 0.17188-2.3125 0.51562-0.51172 0.34375-0.76562 0.85547-0.76562 1.5312 0 0.625 0.20703 1.1172 0.625 1.4688 0.41406 0.34375 0.98828 0.51562 1.7188 0.51562 0.92578 0 1.7031-0.32812 2.3281-0.98438 0.63281-0.66406 0.95312-1.4922 0.95312-2.4844v-0.5625zm7.4688-1.8438v8.7344h-4.9219v-2.2656c-0.65625 0.92969-1.3984 1.6055-2.2188 2.0312-0.82422 0.41406-1.8242 0.625-3 0.625-1.5859 0-2.8711-0.45703-3.8594-1.375-0.99219-0.92578-1.4844-2.1289-1.4844-3.6094 0-1.7891 0.61328-3.1016 1.8438-3.9375 1.2383-0.84375 3.1797-1.2656 5.8281-1.2656h2.8906v-0.39062c0-0.76953-0.30859-1.332-0.92188-1.6875-0.61719-0.36328-1.5703-0.54688-2.8594-0.54688-1.0547 0-2.0312 0.10547-2.9375 0.3125-0.89844 0.21094-1.7305 0.52344-2.5 0.9375v-3.7344c1.0391-0.25 2.0859-0.44141 3.1406-0.57812 1.0625-0.13281 2.125-0.20312 3.1875-0.20312 2.7578 0 4.75 0.54688 5.9688 1.6406 1.2266 1.0859 1.8438 2.8555 1.8438 5.3125z"/>
  </symbol>
  <symbol id="c" overflow="visible">
   <path d="m7.7031-19.656v4.3438h5.0469v3.5h-5.0469v6.5c0 0.71094 0.14062 1.1875 0.42188 1.4375s0.83594 0.375 1.6719 0.375h2.5156v3.5h-4.1875c-1.9375 0-3.3125-0.39844-4.125-1.2031-0.80469-0.8125-1.2031-2.1797-1.2031-4.1094v-6.5h-2.4219v-3.5h2.4219v-4.3438z"/>
  </symbol>
  <symbol id="j" overflow="visible">
   <path d="m12.766-13.078v-8.2031h4.9219v21.281h-4.9219v-2.2188c-0.66797 0.90625-1.4062 1.5703-2.2188 1.9844s-1.7578 0.625-2.8281 0.625c-1.8867 0-3.4336-0.75-4.6406-2.25-1.2109-1.5-1.8125-3.4258-1.8125-5.7812 0-2.3633 0.60156-4.2969 1.8125-5.7969 1.207-1.5 2.7539-2.25 4.6406-2.25 1.0625 0 2 0.21484 2.8125 0.64062 0.82031 0.42969 1.5664 1.0859 2.2344 1.9688zm-3.2188 9.9219c1.0391 0 1.8359-0.37891 2.3906-1.1406 0.55078-0.76953 0.82812-1.8828 0.82812-3.3438 0-1.457-0.27734-2.5664-0.82812-3.3281-0.55469-0.76953-1.3516-1.1562-2.3906-1.1562-1.043 0-1.8398 0.38672-2.3906 1.1562-0.55469 0.76172-0.82812 1.8711-0.82812 3.3281 0 1.4609 0.27344 2.5742 0.82812 3.3438 0.55078 0.76172 1.3477 1.1406 2.3906 1.1406z"/>
  </symbol>
  <symbol id="i" overflow="visible">
   <path d="m10.5-3.1562c1.0508 0 1.8516-0.37891 2.4062-1.1406 0.55078-0.76953 0.82812-1.8828 0.82812-3.3438 0-1.457-0.27734-2.5664-0.82812-3.3281-0.55469-0.76953-1.3555-1.1562-2.4062-1.1562-1.0547 0-1.8594 0.38672-2.4219 1.1562-0.55469 0.77344-0.82812 1.8828-0.82812 3.3281 0 1.4492 0.27344 2.5586 0.82812 3.3281 0.5625 0.77344 1.3672 1.1562 2.4219 1.1562zm-3.25-9.9219c0.67578-0.88281 1.4219-1.5391 2.2344-1.9688 0.82031-0.42578 1.7656-0.64062 2.8281-0.64062 1.8945 0 3.4453 0.75 4.6562 2.25 1.207 1.5 1.8125 3.4336 1.8125 5.7969 0 2.3555-0.60547 4.2812-1.8125 5.7812-1.2109 1.5-2.7617 2.25-4.6562 2.25-1.0625 0-2.0078-0.21094-2.8281-0.625-0.8125-0.42578-1.5586-1.0859-2.2344-1.9844v2.2188h-4.8906v-21.281h4.8906z"/>
  </symbol>
  <symbol id="h" overflow="visible">
   <path d="m0.34375-15.312h4.8906l4.125 10.391 3.5-10.391h4.8906l-6.4375 16.766c-0.64844 1.6953-1.4023 2.8828-2.2656 3.5625-0.86719 0.6875-2 1.0312-3.4062 1.0312h-2.8438v-3.2188h1.5312c0.83203 0 1.4375-0.13672 1.8125-0.40625 0.38281-0.26172 0.67969-0.73047 0.89062-1.4062l0.14062-0.42188z"/>
  </symbol>
  <symbol id="f" overflow="visible">
   <path d="m2.5781-20.406h5.875l7.4219 14v-14h4.9844v20.406h-5.875l-7.4219-14v14h-4.9844z"/>
  </symbol>
  <symbol id="b" overflow="visible">
   <path d="m9.6406-12.188c-1.0859 0-1.9141 0.39062-2.4844 1.1719-0.57422 0.78125-0.85938 1.9062-0.85938 3.375s0.28516 2.5938 0.85938 3.375c0.57031 0.77344 1.3984 1.1562 2.4844 1.1562 1.0625 0 1.875-0.38281 2.4375-1.1562 0.57031-0.78125 0.85938-1.9062 0.85938-3.375s-0.28906-2.5938-0.85938-3.375c-0.5625-0.78125-1.375-1.1719-2.4375-1.1719zm0-3.5c2.6328 0 4.6914 0.71484 6.1719 2.1406 1.4766 1.418 2.2188 3.3867 2.2188 5.9062 0 2.5117-0.74219 4.4805-2.2188 5.9062-1.4805 1.418-3.5391 2.125-6.1719 2.125-2.6484 0-4.7148-0.70703-6.2031-2.125-1.4922-1.4258-2.2344-3.3945-2.2344-5.9062 0-2.5195 0.74219-4.4883 2.2344-5.9062 1.4883-1.4258 3.5547-2.1406 6.2031-2.1406z"/>
  </symbol>
  <symbol id="g" overflow="visible">
   <path d="m17.75-9.3281v9.3281h-4.9219v-7.1406c0-1.3203-0.03125-2.2344-0.09375-2.7344s-0.16797-0.86719-0.3125-1.1094c-0.1875-0.3125-0.44922-0.55469-0.78125-0.73438-0.32422-0.17578-0.69531-0.26562-1.1094-0.26562-1.0234 0-1.8242 0.39844-2.4062 1.1875-0.58594 0.78125-0.875 1.8711-0.875 3.2656v7.5312h-4.8906v-15.312h4.8906v2.2344c0.73828-0.88281 1.5195-1.5391 2.3438-1.9688 0.83203-0.42578 1.75-0.64062 2.75-0.64062 1.7695 0 3.1133 0.54688 4.0312 1.6406 0.91406 1.0859 1.375 2.6562 1.375 4.7188z"/>
  </symbol>
  <symbol id="t" overflow="visible">
   <path d="m2.5781-20.406h6.6875l4.6562 10.922 4.6719-10.922h6.6875v20.406h-4.9844v-14.938l-4.7031 11.016h-3.3281l-4.7031-11.016v14.938h-4.9844z"/>
  </symbol>
  <symbol id="s" overflow="visible">
   <path d="m2.3594-15.312h4.8906v15.312h-4.8906zm0-5.9688h4.8906v4h-4.8906z"/>
  </symbol>
  <symbol id="r" overflow="visible">
   <path d="m14.312-14.828v3.7188c-1.043-0.4375-2.0547-0.76562-3.0312-0.98438-0.98047-0.21875-1.9023-0.32812-2.7656-0.32812-0.92969 0-1.6211 0.11719-2.0781 0.34375-0.44922 0.23047-0.67188 0.58984-0.67188 1.0781 0 0.38672 0.17188 0.68359 0.51562 0.89062 0.34375 0.21094 0.95703 0.36719 1.8438 0.46875l0.85938 0.125c2.5078 0.32422 4.1953 0.85156 5.0625 1.5781 0.86328 0.73047 1.2969 1.8711 1.2969 3.4219 0 1.6367-0.60547 2.8672-1.8125 3.6875-1.1992 0.8125-2.9922 1.2188-5.375 1.2188-1.0234 0-2.0742-0.078125-3.1562-0.23438-1.0742-0.15625-2.1797-0.39453-3.3125-0.71875v-3.7188c0.96875 0.48047 1.9609 0.83984 2.9844 1.0781 1.0312 0.23047 2.0781 0.34375 3.1406 0.34375 0.95703 0 1.6758-0.12891 2.1562-0.39062 0.47656-0.26953 0.71875-0.66406 0.71875-1.1875 0-0.4375-0.16797-0.75781-0.5-0.96875-0.33594-0.21875-0.99609-0.38281-1.9844-0.5l-0.85938-0.10938c-2.1797-0.26953-3.7031-0.77344-4.5781-1.5156-0.875-0.73828-1.3125-1.8594-1.3125-3.3594 0-1.625 0.55078-2.8281 1.6562-3.6094 1.1133-0.78906 2.8203-1.1875 5.125-1.1875 0.89453 0 1.8359 0.074219 2.8281 0.21875 1 0.13672 2.082 0.35156 3.25 0.64062z"/>
  </symbol>
  <symbol id="q" overflow="visible">
   <path d="m12.422-21.281v3.2188h-2.7031c-0.6875 0-1.1719 0.125-1.4531 0.375-0.27344 0.25-0.40625 0.6875-0.40625 1.3125v1.0625h4.1875v3.5h-4.1875v11.812h-4.8906v-11.812h-2.4375v-3.5h2.4375v-1.0625c0-1.6641 0.46094-2.8984 1.3906-3.7031 0.92578-0.80078 2.3672-1.2031 4.3281-1.2031z"/>
  </symbol>
  <symbol id="p" overflow="visible">
   <path d="m16.547-12.766c0.61328-0.94531 1.3477-1.6719 2.2031-2.1719 0.85156-0.5 1.7891-0.75 2.8125-0.75 1.7578 0 3.0977 0.54688 4.0156 1.6406 0.92578 1.0859 1.3906 2.6562 1.3906 4.7188v9.3281h-4.9219v-7.9844-0.35938c0.007813-0.13281 0.015625-0.32031 0.015625-0.5625 0-1.082-0.16406-1.8633-0.48438-2.3438-0.3125-0.48828-0.82422-0.73438-1.5312-0.73438-0.92969 0-1.6484 0.38672-2.1562 1.1562-0.51172 0.76172-0.77344 1.8672-0.78125 3.3125v7.5156h-4.9219v-7.9844c0-1.6953-0.14844-2.7852-0.4375-3.2656-0.29297-0.48828-0.8125-0.73438-1.5625-0.73438-0.9375 0-1.6641 0.38672-2.1719 1.1562-0.51172 0.76172-0.76562 1.8594-0.76562 3.2969v7.5312h-4.9219v-15.312h4.9219v2.2344c0.60156-0.86328 1.2891-1.5156 2.0625-1.9531 0.78125-0.4375 1.6406-0.65625 2.5781-0.65625 1.0625 0 2 0.25781 2.8125 0.76562 0.8125 0.51172 1.4258 1.2305 1.8438 2.1562z"/>
  </symbol>
  <symbol id="o" overflow="visible">
   <path d="m17.75-9.3281v9.3281h-4.9219v-7.1094c0-1.3438-0.03125-2.2656-0.09375-2.7656s-0.16797-0.86719-0.3125-1.1094c-0.1875-0.3125-0.44922-0.55469-0.78125-0.73438-0.32422-0.17578-0.69531-0.26562-1.1094-0.26562-1.0234 0-1.8242 0.39844-2.4062 1.1875-0.58594 0.78125-0.875 1.8711-0.875 3.2656v7.5312h-4.8906v-21.281h4.8906v8.2031c0.73828-0.88281 1.5195-1.5391 2.3438-1.9688 0.83203-0.42578 1.75-0.64062 2.75-0.64062 1.7695 0 3.1133 0.54688 4.0312 1.6406 0.91406 1.0859 1.375 2.6562 1.375 4.7188z"/>
  </symbol>
  <symbol id="n" overflow="visible">
   <path d="m2.1875-5.9688v-9.3438h4.9219v1.5312c0 0.83594-0.007813 1.875-0.015625 3.125-0.011719 1.25-0.015625 2.0859-0.015625 2.5 0 1.2422 0.03125 2.1328 0.09375 2.6719 0.070313 0.54297 0.17969 0.93359 0.32812 1.1719 0.20703 0.32422 0.47266 0.57422 0.79688 0.75 0.32031 0.16797 0.69141 0.25 1.1094 0.25 1.0195 0 1.8203-0.39062 2.4062-1.1719 0.58203-0.78125 0.875-1.8672 0.875-3.2656v-7.5625h4.8906v15.312h-4.8906v-2.2188c-0.74219 0.89844-1.5234 1.5586-2.3438 1.9844-0.82422 0.41406-1.7344 0.625-2.7344 0.625-1.7617 0-3.1055-0.53906-4.0312-1.625-0.92969-1.082-1.3906-2.6602-1.3906-4.7344z"/>
  </symbol>
  <symbol id="m" overflow="visible">
   <path d="m2.5781-20.406h8.7344c2.5938 0 4.582 0.57812 5.9688 1.7344 1.3945 1.1484 2.0938 2.7891 2.0938 4.9219 0 2.1367-0.69922 3.7812-2.0938 4.9375-1.3867 1.1562-3.375 1.7344-5.9688 1.7344h-3.4844v7.0781h-5.25zm5.25 3.8125v5.7031h2.9219c1.0195 0 1.8047-0.25 2.3594-0.75 0.5625-0.5 0.84375-1.2031 0.84375-2.1094 0-0.91406-0.28125-1.6172-0.84375-2.1094-0.55469-0.48828-1.3398-0.73438-2.3594-0.73438z"/>
  </symbol>
  <symbol id="l" overflow="visible">
   <path d="m2.3594-15.312h4.8906v15.031c0 2.0508-0.49609 3.6172-1.4844 4.7031-0.98047 1.082-2.4062 1.625-4.2812 1.625h-2.4219v-3.2188h0.85938c0.92578 0 1.5625-0.21094 1.9062-0.625 0.35156-0.41797 0.53125-1.2461 0.53125-2.4844zm0-5.9688h4.8906v4h-4.8906z"/>
  </symbol>
  <symbol id="k" overflow="visible">
   <path d="m14.719-14.828v3.9844c-0.65625-0.45703-1.3242-0.79688-2-1.0156-0.66797-0.21875-1.3594-0.32812-2.0781-0.32812-1.3672 0-2.4336 0.40234-3.2031 1.2031-0.76172 0.79297-1.1406 1.9062-1.1406 3.3438 0 1.4297 0.37891 2.543 1.1406 3.3438 0.76953 0.79297 1.8359 1.1875 3.2031 1.1875 0.75781 0 1.4844-0.10938 2.1719-0.32812 0.6875-0.22656 1.3203-0.56641 1.9062-1.0156v4c-0.76172 0.28125-1.5391 0.48828-2.3281 0.625-0.78125 0.14453-1.5742 0.21875-2.375 0.21875-2.7617 0-4.9219-0.70703-6.4844-2.125-1.5547-1.4141-2.3281-3.3828-2.3281-5.9062 0-2.5312 0.77344-4.5039 2.3281-5.9219 1.5625-1.4141 3.7227-2.125 6.4844-2.125 0.80078 0 1.5938 0.074219 2.375 0.21875 0.78125 0.13672 1.5547 0.35156 2.3281 0.64062z"/>
  </symbol>
 </defs>
 <g>
  <path d="m414.44 401.65c-0.058594-2.4336-1.6094-5.8086-8.6758-8.082-5.2461-1.6914-12.645-2.4766-21.41-2.2695-5.5078 0.12891-10.965 1.2578-15.863 2.75l-5.75-5.75v-28.715c24.504-6.25 42.68-28.508 42.68-54.93 0-26.426-18.176-48.68-42.68-54.93v-37.719c5.0312-4.1602 10.578-9.6875 14.5-16.258 4.4883-7.5234 7.4531-14.352 8.5664-19.754 1.5-7.2695-0.67188-10.281-2.7617-11.527-2.0859-1.2461-5.7695-1.7344-11.457 3.0391-2.8281 2.3711-5.8242 5.7969-8.8477 10.043v-73.883l5.625-9.0117h-5.625v-35.398h7.3203l-7.4648-12.254-8.043 12.254h7.3203v35.398h-11.004v-7.3867h8.3672l-8.3672-13.734v-14.543c1.668-0.50781 2.8906-2.0391 2.8906-3.8711 0-1.832-1.2227-3.3633-2.8906-3.8711v-21.23h9.9531l-10.805-16.469-10.031 16.469h9.1562v21.094c-1.9805 0.27344-3.5078 1.9531-3.5078 4.0078 0 2.0547 1.5273 3.7344 3.5078 4.0078v14.352l-9.0469 13.789h9.0469v7.3867h-9.5312l-0.003906-46.785h5.2773l-5.4961-9.0234-5.9219 9.0234h5.2773v46.777h-7.0781l7.0781 11.344v72.656c-3.2344-4.9453-6.4844-8.8984-9.5508-11.578-5.5898-4.8867-9.2852-4.4766-11.395-3.2734-2.1133 1.2031-4.3516 4.1719-3 11.469 1.0039 5.4219 3.8281 12.312 8.1641 19.926 4.2031 7.3828 10.438 13.52 15.781 17.91v35.766c-26.504 4.7344-46.695 27.938-46.695 55.785 0 1.7305 0.089844 3.4414 0.24219 5.1367-2.6875 1.3633-4.5508 4.1211-4.5508 7.3438 0 4.5586 3.6953 8.2539 8.2539 8.2578 7.1133 18.031 23.207 31.559 42.75 35.051v27.184l-6.9414 6.9414c-5.0469-1.457-10.691-2.5391-16.371-2.5547-8.75 0.023438-16.148 0.91406-21.359 2.7109-7.0156 2.418-8.5 5.8281-8.5039 8.2578-0.015625 6.4297 10.148 10.586 26.746 11.078l-4.2266 4.2266 25.391 25.391c-7.8945 5.4141-13.086 14.488-13.086 24.762 0 12.418 7.5781 23.098 18.355 27.656v3.3438l-3.8555 9.8711 4.2891 10.977 4.2891-10.977-3.8555-9.8711v-3.0234c2.2812 0.88281 4.6875 1.5 7.1953 1.8047l-2.0469 3.1172h4.3789v4.2773c-1.8281 0.39844-3.1992 2.0195-3.1992 3.9688 0 1.9453 1.3711 3.5703 3.1992 3.9688v20.285h-7.1367l8.2969 12.645 7.7031-12.645h-7.1367v-20.285c1.8281-0.39844 3.1992-2.0195 3.1992-3.9688 0-1.9453-1.3711-3.5703-3.1992-3.9688v-4.2773h4.3789l-1.8477-3.0312c2.9727-0.29688 5.8164-1.0352 8.4727-2.1367v20.082l-3.4336 8.7891 3.8672 9.8945 3.8672-9.8945-3.4336-8.7891v-20.48c10.406-4.7188 17.676-15.18 17.676-27.328 0-10.273-5.1914-19.352-13.086-24.762l25.391-25.391-4.9922-4.9922c16.699-0.80859 26.863-5.1797 26.715-11.633zm-58.285-316.12h-5.2852v-8.6758zm-12.859 0 5.8438-8.9023v8.9023zm23.34 309.11c-1.3516 0.44922-2.6562 0.91797-3.8945 1.3984v-5.293zm-4.7617 52.035-9.1797 9.1797c-0.52344-0.44531-1.1406-0.77734-1.8242-0.95703v-15.594c3.8984 0.0625 7.6172 0.87891 11.004 2.3359zm0.86719-4.6172c0.83984 0.39453 1.6602 0.82812 2.4531 1.2969l-2.4531 2.4531zm-23.133-0.68359c2.9688-1.1875 6.1758-1.8867 9.5312-2.0312v15.441c-0.57422 0.070313-1.1094 0.23828-1.6016 0.5l-7.9297-7.9297zm-0.86719 5.1133-3.1328-3.1328c1.0117-0.59766 2.0469-1.1484 3.1328-1.625zm0.86719-47.387c3.9375 1.5977 6.9883 3.1602 8.625 4.0469-1.6367 0.875-4.6914 2.4141-8.625 3.9883zm-0.86719 8.3711c-6.1094 2.3711-14.125 4.6992-22.277 4.875l15.832-15.832c2.3125 0.69922 4.4766 1.4688 6.4453 2.2461zm12.125-5.8281v-20c0.69531-0.15234 1.3125-0.48438 1.8242-0.94141l9.1797 9.1797v6.5c-5.1055 2.0352-9.0625 4.1562-11.004 5.2617zm-3.1133-20.586c0.41406 0.27734 0.88281 0.47656 1.3828 0.58594v20.027c-1.75-0.94922-5.1406-2.6875-9.5312-4.4297v-8.0391l8.1445-8.1445zm1.3828 23.57v33.855c-3.3477 0.14062-6.5508 0.82422-9.5312 1.9766v-31.465c4.3906-1.7148 7.7812-3.4297 9.5312-4.3672zm1.7305 33.812v-33.855c1.9102 0.97656 5.8711 2.8711 11.004 4.668v31.453c-3.3984-1.4102-7.1133-2.207-11.004-2.2656zm0.91797-35.328c1.8242-1.0391 5.4375-2.9727 10.09-4.8672v9.1914c-4.6289-1.6602-8.2461-3.3867-10.09-4.3242zm10.953-5.2148c1.6484-0.65234 3.4141-1.2891 5.2695-1.8828l15.641 15.641c-7.5391-0.011719-14.98-1.8594-20.91-3.918v-9.8438zm-0.86719-10.465-8.1445-8.1445c0.21484-0.49609 0.33594-1.0391 0.33594-1.6133 0-1.9453-1.3711-3.5703-3.1992-3.9688v-4.2773h4.3789l-4.3789-7.1875v-0.95703c3.7734-0.14062 7.4531-0.65234 11.004-1.5v27.652zm-35.691-59.176c-2.3789-1.9453-4.4688-4.1094-6.2891-6.4297l6.9648-11.008 11.887 12.375v10.875h-3.0312c-3.3516-1.4609-6.5664-3.3867-9.5312-5.8125zm7.5273 5.8125h-21.566l7.2539-11.465c1.8125 2.2773 3.8867 4.4062 6.2344 6.3242 2.5352 2.0742 5.2539 3.7617 8.0781 5.1445zm16.898-176.98h0.046876c3.3906 0.035156 5.4453 4.0352 6.5703 7.3867 1.4844 4.4141 2.3203 10.473 2.4453 17.656-0.46875 0.74609-0.94141 1.5039-1.4102 2.2891-5.0586 8.4766-7.3125 18.516-8.3125 25.73-0.85547-7.2344-2.9023-17.316-7.7852-25.891-0.35156-0.61328-0.70312-1.1992-1.0547-1.793 0.24609-7.4062 1.2109-13.637 2.8203-18.125 1.1914-3.3125 3.3125-7.25 6.6758-7.25zm10.797 25.531c0.15625-0.24609 0.3125-0.47266 0.46875-0.71484v28.566c-3.7812 3.1484-7.2695 5.5039-9.5586 6.9414 2.9297-5.6055 8.9609-18.734 9.0977-32.109 0.007812-0.91406 0-1.8008-0.011719-2.6836zm-10.352 33.48c0.46875-6.3828 2.207-19.828 8.625-30.66-0.17188 12.586-5.6992 24.969-8.625 30.66zm-2.3711-0.78516c-2.8281-5.9336-7.5312-17.59-7.6172-29.445 5.6797 10.43 7.2148 22.922 7.6172 29.445zm-9.0703-24.441c1.2148 11.516 5.9414 22.109 8.3008 26.809-1.9297-1.25-4.9492-3.332-8.3008-6.1016zm28.746 143.2h-5.6172v-12.191l10.434-11.027 8.6758 13.711c-3.9023 4.168-8.5117 7.3477-13.492 9.5078zm13.969-8.7539 5.5391 8.7539h-17.449c4.3672-2.1328 8.4102-5.0586 11.91-8.7539zm-42.715 8.7539v-9.9727l5.3633 5.582c-1 1.1992-1.6211 2.7148-1.6523 4.3906zm0-35.691 9.8398-10.125-3.3008 8.4531 3.8672 9.8945 3.8672-9.8945-3.0352-7.7734 11.031 11.184v21.422l-6.8906 7.2852c-1.2383-1.0586-2.8242-1.7188-4.582-1.7188-1.8789 0-3.5781 0.74219-4.8477 1.9375l-5.9492-6.1914zm-0.86719 23.566-10.953-11.406 10.953-11.273zm23.996-20.957 9.4805 9.6094-9.4805 10.023zm-5.2578 33.082c-0.03125-1.7969-0.73828-3.4219-1.8711-4.6562l6.2617-6.6211v11.273h-4.3906zm-0.0625 0.86719h4.4531v1.332c-1.6641 0.41016-3.3555 0.70703-5.0547 0.90625 0.32422-0.69141 0.51953-1.4453 0.60156-2.2383zm5.3164 0h3.4609c-1.1367 0.41797-2.293 0.78125-3.4609 1.0977zm0-35.18v-5.3906l9.5156 15.039zm-0.86719-0.87891-11.027-11.18h0.019531v-12.098l11.004 17.395v5.8828zm-11.004-24.895v-24.238c3.7773 0.14453 7.457 0.67188 11.004 1.5469v40.082l-11.004-17.395zm0-27.078v-8.6758l5.2852 8.6758zm-1.7305 0h-5.8438l5.8438-8.9023zm-0.40234 2.7891c0.13672 0 0.26953 0.007813 0.40234 0.011719v24.277l-9.5312 15.062v-38.578c2.9688-0.5 6.0156-0.77344 9.125-0.77344zm0.40234 25.91v11.727l-9.5312 9.8047v-6.4727l9.5312-15.062zm-10.395 22.422-10.871 11.184 10.871-17.18zm0 36.91v0.32031c-0.29297-0.10156-0.58594-0.21484-0.87891-0.32031zm0.86719 0h3.7734c0.0625 0.58594 0.18359 1.1484 0.37891 1.6836-1.3984-0.28516-2.7812-0.64844-4.1523-1.0859zm4.5898 2.6367c1.0078 1.8516 2.7969 3.2031 4.9414 3.5898v18.43c-0.13672 0-0.26953 0.011719-0.40234 0.011719-3.1094 0-6.1562-0.27344-9.125-0.77344v-22.414c1.5156 0.47266 3.043 0.85938 4.5898 1.1562zm6.6719 3.6719c2.2734-0.15234 4.2578-1.3438 5.4453-3.1367 1.8711-0.19141 3.7266-0.51953 5.5586-0.96094v20.859c-3.5469 0.875-7.2266 1.3984-11.004 1.5469zm52.816-36.594c0 25.461-17.41 46.93-40.949 53.141v-20.859c1.9688-0.51953 3.8984-1.1875 5.7852-1.9961h20.91l-6.5-10.27c0.48047-0.52734 0.95312-1.0664 1.4102-1.625 4.6055-5.6328 7.668-12.379 8.8555-19.512l-0.85547-0.14062c-1.1641 6.9844-4.1602 13.594-8.6719 19.109-0.39453 0.48438-0.80469 0.95312-1.2188 1.4141l-19.715-31.16v-41.234c23.539 6.2109 40.949 27.676 40.949 53.141zm-41.812-55.133c-1.4492-0.34375-2.918-0.64844-4.4062-0.87891h1.7695l-8.3672-13.734v-14.598c1.3867-0.79297 5.8516-3.4492 11.004-7.6055zm10.824-80.695c2.0508-1.7227 4.75-3.4805 7.2031-3.4805 0.78906 0 1.5469 0.17969 2.2578 0.60156 2.9102 1.7383 2.668 6.2305 1.9531 9.6914-1.0781 5.2109-3.9688 11.855-8.3594 19.215-3.5273 5.9062-8.4141 10.945-13.012 14.879v-29.152c3.4102-5.0898 6.8047-9.1094 9.957-11.758zm-10.824-63.781v73.727c-0.18359 0.26953-0.36719 0.54297-0.55469 0.82031-0.26562-6.2695-1.0938-11.625-2.457-15.672-2.3008-6.8477-5.5781-8.4531-7.9961-8.5586v-32.676l11.004-17.641zm-12.734 17.605v32.91c-2.2266 0.57812-4.8125 2.5586-6.8359 8.1914-1.3516 3.7617-2.2578 8.6836-2.6953 14.441v-70.812l9.5312 15.273zm-24.672 71.68c-4.2422-7.4492-6.9961-14.148-7.9648-19.383-0.64062-3.4766-0.79297-7.9727 2.1523-9.6484 2.9492-1.6797 6.7383 0.74609 9.3984 3.0703 3.4062 2.9766 7.0664 7.6172 10.691 13.512v28.961c-4.9531-4.2031-10.473-9.832-14.277-16.512zm15.141 19.469c4.8594 3.8945 8.8086 6.2539 9.5312 6.6758v14.375l-9.0352 13.77c-0.16406 0.027343-0.32812 0.0625-0.49219 0.089843v-34.906zm-41.832 111.38c3.707-0.8125 6.4805-4.1055 6.4805-8.0547 0-4.5625-3.6992-8.2578-8.2578-8.2578-0.69922 0-1.3711 0.11328-2.0195 0.27734-0.12109-1.4844-0.19922-2.9805-0.19922-4.4961 0-26.887 19.418-49.312 44.961-54.027v39.793l-19.414 30.684c-10.977-14.68-11.027-35.52 1.0859-50.332 1.8477-2.2578 3.9297-4.2969 6.1914-6.1016l2.5078 3.8242 5.8945-9.6758h-12.242l3.3633 5.125c-2.332 1.8555-4.4844 3.9492-6.3867 6.2773-12.445 15.219-12.316 36.652-0.91016 51.66l-8.2656 13.062h24.988c1.0469 0.44922 2.1094 0.85938 3.1797 1.2188v22.523c-18.648-3.4414-34.023-16.32-40.969-33.492zm41.832 35.406c2.9727 0.48437 6.0195 0.74609 9.125 0.74609 0.13672 0 0.26953-0.007812 0.40234-0.011719v1.4297l-4.3789 6.6758h4.3789v4.2773c-1.8281 0.39844-3.1992 2.0195-3.1992 3.9688 0 0.78516 0.23437 1.5117 0.61719 2.1328l-6.9492 6.9492v-26.164zm-0.86719 29.477v6.8359c-1.5781-0.60938-3.2734-1.2109-5.0625-1.7734zm-51.445 12.91c0.007813-3.3906 3.9961-5.4727 7.3398-6.625 4.9688-1.7109 12.039-2.6172 20.469-2.6172h0.32812c5.168 0.015625 10.305 0.94141 14.973 2.2266l-16.387 16.387c-16.281-0.23828-26.73-3.8672-26.715-9.375zm23.234 15.301 4.1836-4.1836c0.22266 0 0.42969 0.011718 0.65625 0.011718h0.125c8.4453 0 16.812-2.3398 23.246-4.7812v31.449c-1.3086 0.55469-2.5547 1.2266-3.7617 1.9531zm10.723 50.152c0-10.035 5.0977-18.898 12.84-24.145l4.6523 4.6523v46.191c-10.281-4.5078-17.488-14.77-17.488-26.699zm18.355 27.051v-45.68l6.5703 6.5703c-0.69141 0.8125-1.125 1.8516-1.125 3 0 2.375 1.7891 4.3086 4.0859 4.5859v30.691l-1.8125 2.7617c-2.6992-0.28516-5.2852-0.95703-7.7148-1.9297zm13.281 1.9688-2.0195-3.3164v-30.289c1.9922-0.52344 3.4688-2.3203 3.4688-4.4727 0-0.78125-0.21094-1.5078-0.55469-2.1562l8.0898-8.0898v46.094c-2.7969 1.2031-5.8203 1.9648-8.9844 2.2344zm26.66-29.023c0 11.66-6.8984 21.711-16.809 26.371v-46.543l3.9727-3.9727c7.7383 5.2461 12.836 14.109 12.836 24.145zm10.723-50.152-24.449 24.449c-0.99219-0.59766-2.0195-1.1445-3.082-1.6289v-31.543c6.0273 2.0391 13.5 3.8477 21.051 3.8477 0.35938 0 0.71875-0.003906 1.0781-0.011719 0.17188-0.003906 0.32812-0.015624 0.5-0.019531l4.9023 4.9023zm-4.2148-6.6602-16.172-16.172c4.5312-1.3164 9.4961-2.2969 14.512-2.4141 8.582-0.19922 15.777 0.55859 20.844 2.1875 3.3672 1.082 7.3945 3.0859 7.4727 6.4766 0.12891 5.5195-10.297 9.3711-26.652 9.9258z"/>
  <use x="70" y="644" xlink:href="#u"/>
  <use x="90.550781" y="644" xlink:href="#e"/>
  <use x="104.359375" y="644" xlink:href="#a"/>
  <use x="123.347656" y="644" xlink:href="#d"/>
  <use x="142.242188" y="644" xlink:href="#c"/>
  <use x="155.628906" y="644" xlink:href="#a"/>
  <use x="174.617188" y="644" xlink:href="#j"/>
  <use x="204.410156" y="644" xlink:href="#i"/>
  <use x="224.453125" y="644" xlink:href="#h"/>
  <use x="252.453125" y="644" xlink:href="#f"/>
  <use x="275.882812" y="644" xlink:href="#b"/>
  <use x="295.121094" y="644" xlink:href="#g"/>
  <use x="315.054688" y="644" xlink:href="#d"/>
  <use x="343.695312" y="644" xlink:href="#t"/>
  <use x="371.5625" y="644" xlink:href="#a"/>
  <use x="390.550781" y="644" xlink:href="#s"/>
  <use x="400.148438" y="644" xlink:href="#r"/>
  <use x="416.8125" y="644" xlink:href="#d"/>
  <use x="70" y="672" xlink:href="#q"/>
  <use x="82.183594" y="672" xlink:href="#e"/>
  <use x="95.992188" y="672" xlink:href="#b"/>
  <use x="115.226562" y="672" xlink:href="#p"/>
  <use x="154.152344" y="672" xlink:href="#c"/>
  <use x="167.535156" y="672" xlink:href="#o"/>
  <use x="187.46875" y="672" xlink:href="#a"/>
  <use x="216.207031" y="672" xlink:href="#f"/>
  <use x="239.640625" y="672" xlink:href="#b"/>
  <use x="258.878906" y="672" xlink:href="#n"/>
  <use x="278.8125" y="672" xlink:href="#g"/>
  <use x="308.492188" y="672" xlink:href="#m"/>
  <use x="329.015625" y="672" xlink:href="#e"/>
  <use x="342.820312" y="672" xlink:href="#b"/>
  <use x="362.058594" y="672" xlink:href="#l"/>
  <use x="371.65625" y="672" xlink:href="#a"/>
  <use x="390.648438" y="672" xlink:href="#k"/>
  <use x="407.242188" y="672" xlink:href="#c"/>
 </g>
</svg>
