<svg version="1.1" id="Layer_1" xmlns="http://www.w3.org/2000/svg" xmlns:xlink="http://www.w3.org/1999/xlink" x="0px" y="0px"
	 width="100%" viewBox="0 0 752 544" enable-background="new 0 0 752 544" xml:space="preserve">
<path fill="#000000" opacity="1.000000" stroke="none" 
	d="
M274.551239,412.548523 
	C257.775330,432.112823 240.132248,450.217285 218.292404,463.658295 
	C199.520233,475.211395 179.417328,482.539337 157.039429,482.341431 
	C148.585251,482.266663 142.339996,476.494476 141.862991,468.301971 
	C141.414963,460.607483 146.557175,453.917847 154.942108,453.611145 
	C186.052246,452.473145 209.516800,436.370422 231.019211,416.025238 
	C240.721756,406.844879 249.476059,396.817993 258.129150,386.662476 
	C283.983887,356.318634 306.705719,323.566406 331.147736,292.139404 
	C355.407776,260.946289 380.093597,230.121841 411.034515,205.035858 
	C438.797668,182.526276 469.847961,167.056412 505.630402,163.107956 
	C552.025146,157.988434 594.062500,168.869415 629.116943,200.898270 
	C650.478088,220.415680 662.754028,245.247009 668.250427,273.523926 
	C668.405762,274.323212 668.524963,275.129486 668.708557,276.212738 
	C672.977661,275.670929 675.010986,272.494141 677.173706,269.724701 
	C684.792542,259.968658 687.560242,248.416992 687.534973,236.468109 
	C687.419861,182.218292 652.979004,118.034027 580.751404,101.417763 
	C549.779053,94.292442 519.033630,96.184631 488.393372,103.940239 
	C451.789917,113.205276 420.422516,131.827911 391.191101,155.313904 
	C351.619049,187.108063 320.597168,226.241272 291.203949,267.008911 
	C268.310120,298.761993 245.859009,330.844391 221.648849,361.631683 
	C202.881790,385.497162 183.172211,408.558105 160.653442,428.969299 
	C138.583466,448.973785 115.058266,466.969086 86.085579,476.168610 
	C74.145096,479.960022 61.988899,482.616699 49.341244,482.358795 
	C41.439457,482.197632 35.741562,477.363342 34.966164,469.974854 
	C34.216911,462.835510 39.086025,456.085693 46.401100,454.669128 
	C54.866058,453.029877 63.574635,453.330109 72.010170,450.981720 
	C95.721413,444.380768 115.393692,430.930511 133.818237,415.291168 
	C166.852203,387.250854 193.168884,353.273438 218.996170,318.850433 
	C244.795776,284.464294 269.128296,249.007812 295.247223,214.852692 
	C329.474030,170.095123 369.188324,131.226791 417.584656,101.996155 
	C445.090851,85.382858 475.337372,75.728317 507.067902,70.650070 
	C525.739502,67.661819 544.447510,66.509750 563.266296,68.653534 
	C630.655701,76.330322 678.456787,110.518745 704.809448,173.558212 
	C711.997559,190.753326 716.131042,208.765686 716.935303,227.332611 
	C717.769043,246.578369 714.644714,265.173126 704.303650,281.953613 
	C696.693176,294.303253 686.158203,303.144989 672.390564,307.849915 
	C669.133484,308.962982 667.860779,310.684784 667.046936,314.061951 
	C658.272278,350.472504 634.525879,371.294617 598.547241,379.203583 
	C591.214905,380.815430 583.765381,381.541168 576.317322,382.129303 
	C573.394714,382.360077 571.388489,383.289734 569.543823,385.532654 
	C553.038635,405.601349 531.746460,415.540771 505.842255,413.067078 
	C485.997986,411.172089 469.495483,395.931213 464.788849,375.330475 
	C459.596100,352.601929 474.364838,333.456665 491.193024,324.072205 
	C497.943207,320.307861 505.644104,322.858246 509.542969,329.158844 
	C513.398254,335.389160 511.938080,343.956238 506.080994,348.470490 
	C502.654663,351.111237 498.982727,353.397675 496.447998,357.072327 
	C492.717926,362.479858 490.781158,368.132690 494.182770,374.330719 
	C497.740753,380.813568 503.010162,385.084900 510.683929,385.737030 
	C531.939758,387.543243 551.210327,368.178802 555.604431,351.296112 
	C565.621094,312.810699 538.555725,288.866699 508.695190,284.424225 
	C474.508484,279.338135 448.013519,294.350830 426.446442,319.030975 
	C404.893066,343.695465 388.439819,372.049805 370.919434,399.601562 
	C358.128296,419.716278 344.826294,439.514099 327.576141,456.222412 
	C314.014923,469.357605 298.534760,479.163727 279.423187,481.742706 
	C271.954163,482.750580 263.992920,484.461945 258.159424,477.141479 
	C254.661682,472.752106 253.697968,467.906128 255.619003,462.619995 
	C257.477631,457.505585 261.051453,453.935272 266.568726,453.695435 
	C289.642548,452.692322 305.152161,439.304871 318.934906,422.640442 
	C337.593292,400.080811 352.169830,374.774658 368.111298,350.383606 
	C383.347076,327.072357 398.635010,303.732056 419.529572,284.945862 
	C443.865051,263.065948 472.416962,251.292664 505.392853,253.912872 
	C535.677612,256.319214 560.866211,268.960022 576.829407,296.101196 
	C584.885376,309.798248 587.939880,324.829071 586.517639,340.723572 
	C586.210510,344.155884 586.163208,347.611450 585.968994,351.617249 
	C604.364563,348.853790 620.433777,342.790985 630.907532,326.723328 
	C642.225342,309.360718 643.337463,290.410645 637.958374,271.059601 
	C625.277649,225.440689 593.409851,201.075943 548.344849,192.440002 
	C511.882324,185.452591 478.289856,193.834518 447.256165,213.533081 
	C420.172333,230.724487 398.643311,253.737396 378.650177,278.506775 
	C348.088562,316.369507 319.885406,356.024445 289.880524,394.303192 
	C285.055786,400.458344 279.821442,406.292389 274.551239,412.548523 
z"/>
</svg>